<svg width="30" height="30" fill="none" xmlns="http://www.w3.org/2000/svg"><g clip-path="url(#clip0_783_10421)"><path d="M.933 20.217C3.053 25.93 8.551 30 15 30c6.45 0 11.948-4.07 14.067-9.783L15 18.913.933 20.217z" fill="#FFDA44"/><path d="M15 0C8.55 0 3.053 4.07.933 9.783L15 11.087l14.067-1.304C26.947 4.07 21.45 0 15 0z" fill="#000"/><path d="M.933 9.782A14.968 14.968 0 000 15c0 1.834.33 3.592.933 5.217h28.134C29.67 18.592 30 16.834 30 15c0-1.835-.33-3.593-.933-5.218H.933z" fill="#D80027"/></g><defs><clipPath id="clip0_783_10421"><path fill="#fff" d="M0 0h30v30H0z"/></clipPath></defs></svg>