<svg width="30" height="30" fill="none" xmlns="http://www.w3.org/2000/svg"><g clip-path="url(#clip0_783_10425)"><path d="M15 30c8.284 0 15-6.716 15-15 0-8.284-6.716-15-15-15C6.716 0 0 6.716 0 15c0 8.284 6.716 15 15 15z" fill="#F0F0F0"/><path d="M30 15C30 8.55 25.93 3.052 20.217.933v28.134C25.93 26.947 30 21.449 30 15z" fill="#D80027"/><path d="M0 15c0 6.45 4.07 11.947 9.783 14.067V.933C4.07 3.052 0 8.55 0 15z" fill="#6DA544"/></g><defs><clipPath id="clip0_783_10425"><path fill="#fff" d="M0 0h30v30H0z"/></clipPath></defs></svg>