<svg width="30" height="30" fill="none" xmlns="http://www.w3.org/2000/svg"><path fill-rule="evenodd" clip-rule="evenodd" d="M15 0c8.284 0 15 6.716 15 15 0 8.284-6.716 15-15 15-8.284 0-15-6.716-15-15C0 6.716 6.716 0 15 0z" fill="#FBFBFB"/><path fill-rule="evenodd" clip-rule="evenodd" d="M29.208 10.179H.79C2.799 4.259 8.401 0 14.999 0s12.2 4.26 14.209 10.179z" fill="#32AB45"/><path fill-rule="evenodd" clip-rule="evenodd" d="M29.208 19.821C27.2 25.741 21.597 30 14.999 30 8.402 30 2.8 25.74.791 19.82h28.417z" fill="#1D1D1D"/><path fill-rule="evenodd" clip-rule="evenodd" d="M8.036 1.71v26.578C3.258 25.78 0 20.77 0 15 0 9.23 3.258 4.22 8.036 1.71z" fill="#E92B2B"/></svg>