<svg width="30" height="30" fill="none" xmlns="http://www.w3.org/2000/svg"><g clip-path="url(#clip0_783_10314)"><path d="M15 30c8.284 0 15-6.716 15-15 0-8.284-6.716-15-15-15C6.716 0 0 6.716 0 15c0 8.284 6.716 15 15 15z" fill="#F0F0F0"/><path d="M30 15c0-5.947-3.461-11.085-8.479-13.512v27.023C26.54 26.085 30 20.947 30 15zM0 15c0 5.947 3.46 11.085 8.478 13.512V1.488C3.461 3.915 0 9.053 0 15zm17.609 1.956l2.608-1.304L18.913 15v-1.305L16.304 15l1.305-2.609h-1.305L15 10.435l-1.304 1.956H12.39L13.696 15l-2.609-1.305V15l-1.304.652 2.608 1.304-.652 1.305h2.609v1.956h1.304v-1.956h2.609l-.652-1.305z" fill="#D80027"/></g><defs><clipPath id="clip0_783_10314"><path fill="#fff" d="M0 0h30v30H0z"/></clipPath></defs></svg>