<svg width="30" height="30" fill="none" xmlns="http://www.w3.org/2000/svg"><g clip-path="url(#clip0_783_10320)"><path d="M15 30c8.284 0 15-6.716 15-15 0-8.284-6.716-15-15-15C6.716 0 0 6.716 0 15c0 8.284 6.716 15 15 15z" fill="#fff"/><path d="M15 11.087h14.483a14.919 14.919 0 00-1.685-3.913H15v3.913zM5.663 26.74h18.674a15.077 15.077 0 003.461-3.914H2.202a15.08 15.08 0 003.46 3.913zM5.217 3.629a15.073 15.073 0 00-3.015 3.545h3.015V3.629zM15 15v-3.913H9.13V15H5.217v-3.913h-4.7A15.017 15.017 0 000 15c0 1.354.18 2.665.517 3.913h28.966C29.82 17.665 30 16.353 30 15H15z" fill="#338AF3"/><path d="M15 0a14.96 14.96 0 00-5.87 1.192v5.982H15V3.26h9.337A14.936 14.936 0 0015 0z" fill="#338AF3"/></g><defs><clipPath id="clip0_783_10320"><path fill="#fff" d="M0 0h30v30H0z"/></clipPath></defs></svg>