<svg width="30" height="30" fill="none" xmlns="http://www.w3.org/2000/svg"><g clip-path="url(#clip0_783_10330)"><path d="M15 30c8.284 0 15-6.716 15-15 0-8.284-6.716-15-15-15C6.716 0 0 6.716 0 15c0 8.284 6.716 15 15 15z" fill="#F0F0F0"/><path d="M14.348 15H30c0-1.354-.18-2.665-.517-3.913H14.348V15zm0-7.826h13.45a15.08 15.08 0 00-3.46-3.913h-9.99v3.913zM15 30c3.53 0 6.775-1.22 9.337-3.26H5.663A14.936 14.936 0 0015 30zM2.201 22.826h25.597a14.914 14.914 0 001.685-3.913H.517a14.92 14.92 0 001.684 3.913z" fill="#D80027"/><path d="M6.948 2.342h1.367l-1.271.924.485 1.495-1.271-.924-1.271.924.42-1.291a15.05 15.05 0 00-2.91 3.242h.438l-.81.588c-.126.21-.247.424-.363.64l.387 1.19-.721-.523c-.18.38-.343.768-.49 1.164l.425 1.31h1.572l-1.272.924.486 1.495-1.271-.924-.762.554A15.145 15.145 0 000 15h15V0c-2.963 0-5.725.86-8.052 2.342zM7.53 13.5l-1.271-.924-1.271.924.485-1.495-1.271-.923h1.571l.486-1.495.486 1.495h1.571l-1.271.923.485 1.495zm-.485-5.864L7.53 9.13l-1.271-.923-1.271.923.485-1.494-1.271-.924h1.571l.486-1.495.486 1.495h1.571l-1.271.924zM12.91 13.5l-1.272-.924-1.271.924.486-1.495-1.272-.923h1.572l.485-1.495.486 1.495h1.572l-1.272.923.486 1.495zm-.486-5.864l.486 1.494-1.272-.923-1.271.923.486-1.494-1.272-.924h1.572l.485-1.495.486 1.495h1.572l-1.272.924zm0-4.37l.486 1.495-1.272-.924-1.271.924.486-1.495-1.272-.924h1.572l.485-1.494.486 1.494h1.572l-1.272.924z" fill="#0052B4"/></g><defs><clipPath id="clip0_783_10330"><path fill="#fff" d="M0 0h30v30H0z"/></clipPath></defs></svg>