<svg width="30" height="30" fill="none" xmlns="http://www.w3.org/2000/svg"><g clip-path="url(#clip0_783_10339)"><path d="M15 30c8.284 0 15-6.716 15-15 0-8.284-6.716-15-15-15C6.716 0 0 6.716 0 15c0 8.284 6.716 15 15 15z" fill="#D80027"/><path d="M8.209 9.129l1.295 3.984h4.19l-3.387 2.467 1.295 3.984-3.393-2.46-3.393 2.46 1.301-3.984-3.392-2.467h4.19L8.208 9.13zm9.574 14.103l-.99-1.218-1.465.568.85-1.318-.99-1.225 1.517.404.856-1.318.082 1.57 1.523.405-1.47.562.087 1.57zm1.969-3.574l.469-1.5-1.284-.908 1.57-.023.464-1.5.51 1.488 1.57-.018-1.26.938.504 1.488-1.283-.908-1.26.943zm2.654-8.648l-.691 1.412 1.125 1.096-1.553-.223-.691 1.406-.27-1.547-1.558-.222 1.394-.733-.27-1.553 1.126 1.096 1.388-.732zm-4.582-4.278l-.117 1.565 1.459.592-1.53.375-.11 1.57-.827-1.336-1.53.375 1.015-1.201-.832-1.33 1.459.592 1.013-1.202z" fill="#FFDA44"/></g><defs><clipPath id="clip0_783_10339"><path fill="#fff" d="M0 0h30v30H0z"/></clipPath></defs></svg>