<svg width="30" height="30" fill="none" xmlns="http://www.w3.org/2000/svg"><g clip-path="url(#clip0_783_10347)"><path d="M15 30c8.284 0 15-6.716 15-15 0-8.284-6.716-15-15-15C6.716 0 0 6.716 0 15c0 8.284 6.716 15 15 15z" fill="#D80027"/><path d="M14.386 12.257l1.23 1.696 1.994-.646L16.377 15l1.23 1.696-1.992-.649-1.233 1.695.002-2.096L12.39 15l1.993-.647.002-2.095z" fill="#F0F0F0"/><path d="M11.027 19.239a4.24 4.24 0 112.016-7.969 5.217 5.217 0 100 7.46 4.23 4.23 0 01-2.016.509z" fill="#F0F0F0"/></g><defs><clipPath id="clip0_783_10347"><path fill="#fff" d="M0 0h30v30H0z"/></clipPath></defs></svg>