<svg width="812" height="769" fill="none" xmlns="http://www.w3.org/2000/svg"><g opacity=".3" clip-path="url(#clip0_783_10175)"><mask id="path-1-inside-1_783_10175" fill="#fff"><path d="M-185.936 434.542c23.936-26.553 50.53-53.108 79.785-77.006 13.298-10.622 26.595-23.899 42.552-31.865 7.976-5.311 13.294-7.966 21.279-13.277 7.977-2.655 13.295-7.966 21.273-7.966 15.954-5.311 31.916-7.966 45.212-7.966h23.932c2.666 0 7.984 0 10.643 2.655 2.66 0 5.318 0 7.977 2.655h15.955c2.66 0-2.659 0 10.637-2.655 7.984-7.966 13.302-2.655 21.28-26.554 0-29.209-7.978-29.209-7.978-29.209a45736.43 45736.43 0 00-5.318-5.311c-2.66 0-2.66-2.655-5.325-2.655l-5.319-2.656-7.977-2.656c-5.318-2.654-10.636-2.654-15.955-5.31l-13.295-5.311c-2.66 0-5.325-2.655-7.984-2.655-10.637-5.311-21.273-13.277-29.25-23.899C8.21 182.28.225 169.003-7.753 153.07c-2.659-7.966-5.318-15.932-10.636-26.553-7.978-13.278-10.637-21.244-15.955-31.865-10.636-18.588-21.28-37.176-39.894-53.108 5.32 0 7.978 2.655 13.296 2.655 15.962 5.31 31.916 13.277 47.87 23.898 29.258 18.589 53.19 45.142 71.811 77.007 10.637 15.932 18.614 31.865 26.591 50.453l7.978 13.277c2.659 5.31 2.659 7.966 13.302 15.932 5.318 2.656 10.637 5.31 18.614 5.31 2.659 0 7.977 0 13.296-2.654 2.659 0 5.318-2.656 5.318-5.312 0-2.655 2.659-5.31 2.659-7.965 0-2.656 0-5.311-2.659-7.966-5.318-7.967-7.977-5.312-10.637-7.967h-5.318s-2.659 0-2.659-2.655l2.659-2.656 10.637-7.966c15.961-10.621 31.916-21.243 47.871-29.209 29.257-21.243 63.833-37.176 98.401-50.453 69.151-26.554 143.613-39.83 215.424-37.175 37.227 0 71.803 5.31 109.037 13.277 10.637 2.655 18.614 2.655 29.258 5.31h10.636c2.659 0 5.318 0 10.637-2.655l-10.637 10.622-42.553 37.175c-23.939 23.899-55.848 42.487-85.105 63.73-10.637 7.966-23.933 13.277-34.576 21.243-7.977 5.31-13.296 7.966-21.273 10.622-7.977 2.654-13.296 5.31-21.273 7.966-7.984 2.655-15.962 5.31-23.939 7.966-7.977 2.655-15.955 5.311-26.591 7.966-5.325 0-10.644 2.655-13.303 5.311-7.977 2.655-26.591 7.966-37.227 15.932-10.644 7.966-21.28 15.933-31.917 29.209l-5.318 5.312c0 2.655-2.659 2.655-2.659 5.31l-5.318 5.311s-2.659 5.31-2.659 7.966c0 2.656-2.666 7.966 0 15.932 0 5.311 5.318 18.588 15.954 26.555 7.978 7.966 15.955 7.966 23.932 10.621h10.644c10.636-2.655 13.295-2.655 15.955-5.311 10.636-5.31 13.295-7.966 18.613-10.622 10.637-7.966 15.962-13.276 23.939-21.243 2.659-2.655 15.955-7.966 34.569-13.276 7.984-2.656 15.962-5.311 26.598-7.967l-10.636 10.622c-26.599 26.554-53.19 53.108-79.788 77.007-55.848 50.452-111.697 98.249-172.864 143.391-29.257 21.243-61.173 42.486-93.083 58.419-31.916 13.277-69.15 29.209-106.378 23.898l-2.666 7.967c39.893 10.621 79.787 0 114.363-13.278 37.234-13.277 71.803-31.865 103.719-50.452 66.485-39.831 125-84.973 186.166-132.77 61.167-47.797 117.016-95.594 175.523-146.047 29.257-26.554 58.515-47.797 85.106-77.007 13.295-13.276 26.598-26.553 39.894-42.486 5.318-7.966 13.295-13.276 18.613-21.243l13.303-15.932 5.318-7.966 2.659-5.312c2.659-2.654 2.659-2.654 5.319-13.276 0-5.311 2.659-2.656 0-15.933-2.66-10.62-5.319-15.932-10.637-21.243V65.442c0-5.31-2.659-13.277-5.318-18.587-5.325-13.277-18.621-21.244-26.598-23.9-18.614-5.31-31.917-5.31-45.212-2.654-5.319 0-13.296 2.655-18.614 5.31h-5.318c-7.985 0-15.962 0-26.598-2.655-34.576-2.655-74.47-5.31-114.357-2.655-79.787 5.31-154.249 26.554-226.06 58.418-34.575 15.933-66.484 34.52-101.06 53.108-15.955 10.622-31.916 21.243-47.871 31.865l-10.637 7.966-5.318 5.311h-2.659c-7.984-15.933-15.962-34.52-23.939-50.452-7.977-15.933-18.614-31.865-31.916-47.798C34.8 62.787 18.847 49.51 2.892 38.89-13.07 28.266-31.684 17.644-50.305 9.678c-10.636-2.655-21.273-7.966-31.91-7.966-10.638-2.656-21.276-2.656-37.234 0-5.319 2.655-7.978 2.655-13.297 7.966-5.319 2.655-7.978 10.621-10.638 18.588-2.659 5.31-2.659 13.277 0 21.243 2.66 7.966 5.319 10.622 10.638 15.932 10.638 10.622 21.276 13.277 18.617 15.933 7.978 10.621 15.957 23.898 21.276 39.83l7.978 23.899c2.66 7.966 5.32 18.588 7.978 29.21 7.98 21.243 15.956 39.831 29.258 58.418 2.66 2.656 5.319 7.966 7.978 10.622-2.66 0-5.319 0-5.319 2.655-42.554 18.588-71.809 45.142-98.404 74.351-26.595 29.21-50.531 61.074-69.147 92.939-18.616 31.865-39.893 66.385-47.871 106.216l7.978 2.655c15.958-31.864 42.553-61.074 66.488-87.628zm827.107-408.93s2.659 0 0 0zm-744.662 18.587c-2.66 0 0 0 0 0z"/></mask><path d="M-185.936 434.542c23.936-26.553 50.53-53.108 79.785-77.006 13.298-10.622 26.595-23.899 42.552-31.865 7.976-5.311 13.294-7.966 21.279-13.277 7.977-2.655 13.295-7.966 21.273-7.966 15.954-5.311 31.916-7.966 45.212-7.966h23.932c2.666 0 7.984 0 10.643 2.655 2.66 0 5.318 0 7.977 2.655h15.955c2.66 0-2.659 0 10.637-2.655 7.984-7.966 13.302-2.655 21.28-26.554 0-29.209-7.978-29.209-7.978-29.209a45736.43 45736.43 0 00-5.318-5.311c-2.66 0-2.66-2.655-5.325-2.655l-5.319-2.656-7.977-2.656c-5.318-2.654-10.636-2.654-15.955-5.31l-13.295-5.311c-2.66 0-5.325-2.655-7.984-2.655-10.637-5.311-21.273-13.277-29.25-23.899C8.21 182.28.225 169.003-7.753 153.07c-2.659-7.966-5.318-15.932-10.636-26.553-7.978-13.278-10.637-21.244-15.955-31.865-10.636-18.588-21.28-37.176-39.894-53.108 5.32 0 7.978 2.655 13.296 2.655 15.962 5.31 31.916 13.277 47.87 23.898 29.258 18.589 53.19 45.142 71.811 77.007 10.637 15.932 18.614 31.865 26.591 50.453l7.978 13.277c2.659 5.31 2.659 7.966 13.302 15.932 5.318 2.656 10.637 5.31 18.614 5.31 2.659 0 7.977 0 13.296-2.654 2.659 0 5.318-2.656 5.318-5.312 0-2.655 2.659-5.31 2.659-7.965 0-2.656 0-5.311-2.659-7.966-5.318-7.967-7.977-5.312-10.637-7.967h-5.318s-2.659 0-2.659-2.655l2.659-2.656 10.637-7.966c15.961-10.621 31.916-21.243 47.871-29.209 29.257-21.243 63.833-37.176 98.401-50.453 69.151-26.554 143.613-39.83 215.424-37.175 37.227 0 71.803 5.31 109.037 13.277 10.637 2.655 18.614 2.655 29.258 5.31h10.636c2.659 0 5.318 0 10.637-2.655l-10.637 10.622-42.553 37.175c-23.939 23.899-55.848 42.487-85.105 63.73-10.637 7.966-23.933 13.277-34.576 21.243-7.977 5.31-13.296 7.966-21.273 10.622-7.977 2.654-13.296 5.31-21.273 7.966-7.984 2.655-15.962 5.31-23.939 7.966-7.977 2.655-15.955 5.311-26.591 7.966-5.325 0-10.644 2.655-13.303 5.311-7.977 2.655-26.591 7.966-37.227 15.932-10.644 7.966-21.28 15.933-31.917 29.209l-5.318 5.312c0 2.655-2.659 2.655-2.659 5.31l-5.318 5.311s-2.659 5.31-2.659 7.966c0 2.656-2.666 7.966 0 15.932 0 5.311 5.318 18.588 15.954 26.555 7.978 7.966 15.955 7.966 23.932 10.621h10.644c10.636-2.655 13.295-2.655 15.955-5.311 10.636-5.31 13.295-7.966 18.613-10.622 10.637-7.966 15.962-13.276 23.939-21.243 2.659-2.655 15.955-7.966 34.569-13.276 7.984-2.656 15.962-5.311 26.598-7.967l-10.636 10.622c-26.599 26.554-53.19 53.108-79.788 77.007-55.848 50.452-111.697 98.249-172.864 143.391-29.257 21.243-61.173 42.486-93.083 58.419-31.916 13.277-69.15 29.209-106.378 23.898l-2.666 7.967c39.893 10.621 79.787 0 114.363-13.278 37.234-13.277 71.803-31.865 103.719-50.452 66.485-39.831 125-84.973 186.166-132.77 61.167-47.797 117.016-95.594 175.523-146.047 29.257-26.554 58.515-47.797 85.106-77.007 13.295-13.276 26.598-26.553 39.894-42.486 5.318-7.966 13.295-13.276 18.613-21.243l13.303-15.932 5.318-7.966 2.659-5.312c2.659-2.654 2.659-2.654 5.319-13.276 0-5.311 2.659-2.656 0-15.933-2.66-10.62-5.319-15.932-10.637-21.243V65.442c0-5.31-2.659-13.277-5.318-18.587-5.325-13.277-18.621-21.244-26.598-23.9-18.614-5.31-31.917-5.31-45.212-2.654-5.319 0-13.296 2.655-18.614 5.31h-5.318c-7.985 0-15.962 0-26.598-2.655-34.576-2.655-74.47-5.31-114.357-2.655-79.787 5.31-154.249 26.554-226.06 58.418-34.575 15.933-66.484 34.52-101.06 53.108-15.955 10.622-31.916 21.243-47.871 31.865l-10.637 7.966-5.318 5.311h-2.659c-7.984-15.933-15.962-34.52-23.939-50.452-7.977-15.933-18.614-31.865-31.916-47.798C34.8 62.787 18.847 49.51 2.892 38.89-13.07 28.266-31.684 17.644-50.305 9.678c-10.636-2.655-21.273-7.966-31.91-7.966-10.638-2.656-21.276-2.656-37.234 0-5.319 2.655-7.978 2.655-13.297 7.966-5.319 2.655-7.978 10.621-10.638 18.588-2.659 5.31-2.659 13.277 0 21.243 2.66 7.966 5.319 10.622 10.638 15.932 10.638 10.622 21.276 13.277 18.617 15.933 7.978 10.621 15.957 23.898 21.276 39.83l7.978 23.899c2.66 7.966 5.32 18.588 7.978 29.21 7.98 21.243 15.956 39.831 29.258 58.418 2.66 2.656 5.319 7.966 7.978 10.622-2.66 0-5.319 0-5.319 2.655-42.554 18.588-71.809 45.142-98.404 74.351-26.595 29.21-50.531 61.074-69.147 92.939-18.616 31.865-39.893 66.385-47.871 106.216l7.978 2.655c15.958-31.864 42.553-61.074 66.488-87.628zm827.107-408.93s2.659 0 0 0v0zm-744.662 18.587c-2.66 0 0 0 0 0v0z" stroke="#D0D0D0" stroke-width="6" mask="url(#path-1-inside-1_783_10175)"/><path d="M322.887 634.921l.039-.027.038-.03c6.604-5.276 13.215-9.896 19.87-14.547l.017-.012c6.612-4.621 13.269-9.273 19.928-14.587 9.615-5.774 17.903-12.956 27.66-21.412 3.827-3.317 7.881-6.829 12.329-10.53 58.279-47.608 129.807-76.705 201.333-84.64 71.051-7.883 144.662 2.506 205.27 33.682l-1.484 2.965c-66.368-13.07-135.306-10.356-198.938 2.88-64.082 13.33-122.82 42.656-173.531 85.294l-.049.041-.045.045c-10.648 10.633-23.845 23.806-39.658 34.333l-.054.036-.051.04c-6.572 5.248-13.817 9.854-21.455 14.496-1.754 1.066-3.531 2.135-5.324 3.214-5.977 3.596-12.138 7.304-18.291 11.399-31.789 18.51-63.596 31.747-98.121 45.002-68.97 23.838-140.561 34.418-212.14 29.13-71.618-5.299-140.507-23.836-201.412-63.492l-.007-.005-.007-.005-.038-.023c-29.216-18.566-58.56-37.212-90.592-50.54-29.367-13.326-64.056-23.982-96.094-29.314l-.033-.005-.034-.004c-66.684-7.99-130.731-2.666-194.78 18.648-34.417 10.572-71.457 15.849-108.472 13.209-34.103-2.619-70.77-13.036-99.671-31.194v-2.606c68.845 15.408 134.993 4.721 195.786-16.391 31.881-10.61 68.966-21.181 106.004-23.823 37.014-2.639 74.051 2.637 108.467 13.207 61.73 21.34 114.959 55.412 167.468 89.024 6.125 3.92 12.24 7.834 18.358 11.721l.021.014.021.012c58.836 34.713 128.298 45.353 194.964 42.692 66.686-2.66 133.336-18.636 194.63-42.587l.015-.006.015-.006c31.93-13.283 61.309-26.611 88.048-45.298z" stroke="#D0D0D0" stroke-width="3"/></g><defs><clipPath id="clip0_783_10175"><path fill="#fff" transform="translate(-752)" d="M0 0h1564v769H0z"/></clipPath></defs></svg>