<svg width="344" height="52" fill="none" xmlns="http://www.w3.org/2000/svg"><path d="M130.587 12.437h6.192l7.017 18.466 7.018-18.466h6.191L146.273 38.7h-4.954l-10.732-26.263zm38.389 0h5.366L185.488 38.7h-6.192l-2.477-5.745h-11.145l-2.477 5.745h-5.366l11.145-26.263zm6.192 15.183l-3.715-8.207-3.302 8.618h7.017v-.411zm17.337-15.183h11.971c3.302 0 5.779.821 7.43 2.462 1.651 1.642 2.064 3.283 2.064 6.156 0 4.103-2.476 6.976-5.779 8.207l6.192 9.438h-6.605l-5.779-8.207h-4.54V38.7h-5.779V12.437h.825zm11.558 12.721c2.89 0 4.541-1.641 4.541-3.693 0-2.462-1.651-3.693-4.541-3.693h-5.779v7.386h5.779zm26.831-12.721h5.367L247.407 38.7h-5.78l-2.476-5.745h-11.146l-2.476 5.745h-5.779l11.144-26.263zm6.192 15.183l-3.302-8.617-3.302 8.617h6.604zm17.337-15.183h6.192l7.017 11.08 7.018-11.08h6.191V38.29h-6.191V21.465l-7.43 11.08-7.43-11.08V38.29h-5.78V12.437h.413zm44.168 0h5.367L315.103 38.7h-6.192l-2.477-5.745h-11.145l-2.477 5.745h-5.779l11.558-26.263zm5.78 15.183l-3.303-8.617-3.302 8.617h6.605zm17.336-15.183h11.972c3.301 0 5.779.821 7.43 2.462 1.651 1.642 2.063 3.283 2.063 6.156 0 4.103-2.476 6.976-5.779 8.207l6.192 9.438h-6.605l-5.778-8.207h-4.541V38.7h-5.779V12.437h.825zm11.559 12.721c2.889 0 4.54-1.641 4.54-3.693 0-2.462-1.651-3.693-4.54-3.693h-5.779v7.386h5.779zM39.195 29.956c1.656-1.83 3.496-3.66 5.52-5.305.92-.732 1.84-1.647 2.945-2.196.552-.366.92-.548 1.472-.914.552-.183.92-.55 1.472-.55 1.104-.365 2.208-.548 3.128-.548h1.656c.185 0 .553 0 .737.183.184 0 .368 0 .551.183h1.105c.184 0-.184 0 .735-.183.553-.549.92-.183 1.473-1.83 0-2.012-.552-2.012-.552-2.012l-.368-.366c-.184 0-.184-.183-.369-.183l-.368-.182-.551-.183c-.368-.183-.736-.183-1.105-.366l-.92-.366c-.183 0-.368-.183-.552-.183-.736-.366-1.472-.915-2.024-1.646-.552-.732-1.104-1.647-1.656-2.744-.184-.55-.368-1.098-.736-1.83-.552-.915-.736-1.463-1.104-2.195-.736-1.28-1.472-2.561-2.76-3.659.368 0 .552.183.92.183 1.104.366 2.208.915 3.312 1.647 2.024 1.28 3.68 3.11 4.969 5.305.736 1.097 1.288 2.195 1.84 3.476l.551.914c.184.366.184.549.92 1.098.369.183.737.366 1.289.366.184 0 .552 0 .92-.183.184 0 .368-.183.368-.366s.184-.366.184-.549c0-.183 0-.366-.184-.549-.368-.549-.552-.366-.736-.549h-.368s-.184 0-.184-.182l.184-.184.736-.548c1.104-.732 2.208-1.464 3.312-2.013 2.024-1.463 4.417-2.56 6.809-3.475 4.784-1.83 9.936-2.744 14.905-2.561 2.576 0 4.968.365 7.544.914.736.183 1.288.183 2.025.366h.736c.184 0 .368 0 .736-.183l-.736.732L94.03 9.1c-1.656 1.646-3.864 2.927-5.888 4.39-.736.55-1.656.915-2.392 1.464-.552.366-.92.549-1.472.732-.552.183-.92.366-1.472.548l-1.657.55c-.552.182-1.104.365-1.84.548a1.41 1.41 0 00-.92.366c-.552.183-1.84.549-2.576 1.098-.736.548-1.472 1.097-2.208 2.012l-.368.366c0 .183-.184.183-.184.366l-.368.366s-.184.365-.184.548c0 .183-.184.55 0 1.098 0 .366.368 1.28 1.104 1.83.552.548 1.104.548 1.656.731h.736c.736-.183.92-.183 1.104-.366.736-.366.92-.549 1.288-.732.736-.548 1.104-.914 1.656-1.463.184-.183 1.104-.549 2.392-.915.553-.183 1.105-.366 1.84-.549l-.735.732c-1.84 1.83-3.68 3.659-5.52 5.305-3.865 3.476-7.73 6.769-11.962 9.879-2.024 1.463-4.232 2.927-6.44 4.024-2.209.915-4.785 2.013-7.36 1.647l-.185.549c2.76.731 5.52 0 7.913-.915 2.576-.915 4.968-2.195 7.176-3.476 4.6-2.744 8.65-5.854 12.881-9.147 4.233-3.293 8.097-6.585 12.145-10.061 2.024-1.83 4.049-3.293 5.889-5.305.92-.915 1.84-1.83 2.76-2.927.368-.549.92-.915 1.288-1.464l.92-1.097.368-.549.184-.366c.184-.183.184-.183.368-.915 0-.365.184-.183 0-1.097-.184-.732-.368-1.098-.736-1.464v-.914c0-.366-.184-.915-.368-1.28-.368-.916-1.288-1.464-1.84-1.647-1.288-.366-2.208-.366-3.128-.183-.368 0-.92.183-1.288.366h-.368c-.553 0-1.105 0-1.84-.183-2.393-.183-5.153-.366-7.913-.183-5.52.366-10.673 1.83-15.641 4.024-2.393 1.098-4.6 2.378-6.993 3.659l-3.312 2.195-.736.55-.368.365h-.184c-.553-1.098-1.105-2.378-1.657-3.476-.551-1.097-1.287-2.195-2.208-3.293-.92-1.097-2.024-2.012-3.128-2.744-1.104-.731-2.392-1.463-3.68-2.012-.736-.183-1.472-.549-2.208-.549-.736-.183-1.472-.183-2.577 0-.368.183-.552.183-.92.549-.368.183-.552.732-.736 1.28-.184.366-.184.915 0 1.464.184.549.368.732.736 1.098.736.731 1.472.914 1.288 1.097a9.677 9.677 0 011.473 2.744l.552 1.647c.184.549.368 1.28.552 2.012.552 1.463 1.104 2.744 2.024 4.025.184.182.368.548.552.731-.184 0-.368 0-.368.183-2.944 1.28-4.968 3.11-6.809 5.122-1.84 2.013-3.496 4.208-4.784 6.403-1.288 2.195-2.76 4.573-3.312 7.317l.552.184c1.104-2.196 2.944-4.208 4.6-6.037zM96.424 1.784s.184 0 0 0zM44.9 3.064c-.184 0 0 0 0 0z" fill="#fff"/><path d="M93.847 33.614a27.08 27.08 0 00-13.985 5.854c-1.104.915-1.84 1.646-2.76 2.195-.92.732-1.84 1.28-2.76 2.013-1.84 1.28-3.864 2.195-6.073 3.11-4.232 1.646-8.832 2.744-13.433 2.926-4.6.183-9.384-.548-13.433-2.927-4.048-2.56-8.096-5.305-12.88-6.951-2.393-.732-4.97-1.098-7.545-.915-2.577.183-5.153.915-7.36 1.647C9.384 42.029 4.783 42.76 0 41.663v.366c2.024 1.28 4.6 2.012 6.993 2.195 2.576.183 5.152-.183 7.544-.914 4.416-1.464 8.833-1.83 13.433-1.28a27.73 27.73 0 016.625 2.011c2.208.915 4.232 2.196 6.256 3.476 4.233 2.744 9.017 4.025 13.985 4.39 4.969.366 9.937-.365 14.722-2.012 2.391-.914 4.6-1.829 6.808-3.11 1.104-.731 2.208-1.28 3.128-2.012 1.104-.732 2.024-1.646 2.76-2.378 3.496-2.927 7.545-4.94 11.961-5.854 4.417-.915 9.201-1.097 13.801-.183l.184-.366c-4.232-2.195-9.384-2.927-14.353-2.378z" fill="#fff"/></svg>