<svg width="63" height="67" fill="none" xmlns="http://www.w3.org/2000/svg"><path fill-rule="evenodd" clip-rule="evenodd" d="M6.434 36.13a1.44 1.44 0 01.821-1.002l11.358-4.825a1.457 1.457 0 011.09-.014L31.5 35.044l11.797-4.938c.355-.141.75-.141 1.105 0l11.343 4.839c.421.181.728.555.822 1.002l6.4 29.136a1.42 1.42 0 01-.452 1.368 1.404 1.404 0 01-1.416.255L47.63 61.71l-15.72 4.698c-.259.075-.532.08-.793.014l-15.734-4.388-13.482 4.882c-.487.174-1.03.07-1.418-.27a1.415 1.415 0 01-.451-1.367l6.4-29.15zm36.24-2.709L32.916 37.5v25.665l13.2-3.95-3.442-25.792zm-22.277.184l9.687 3.908v25.693l-13.086-3.668 3.399-25.933zm33.564 3.654l-8.384-3.584L48.976 59.2l10.678 3.965-5.693-25.905zm-36.453-3.428l-3.356 25.636-10.806 3.909L9.04 37.443l8.47-3.612z" fill="#fff"/><path fill-rule="evenodd" clip-rule="evenodd" d="M31.5 31c.382 0 .747-.158 1.01-.437l7.863-8.255c4.836-5.108 4.836-13.376 0-18.442A12.15 12.15 0 0031.503 0a12.147 12.147 0 00-8.876 3.852c-4.836 5.108-4.836 13.377 0 18.442l7.864 8.269c.262.279.627.437 1.009.437zm0-28.178a9.33 9.33 0 016.84 2.991c3.813 3.994 3.813 10.512.014 14.534l-6.84 7.196-6.854-7.196c-3.813-3.98-3.813-10.512 0-14.534a9.33 9.33 0 016.84-2.991z" fill="#fff"/><path fill-rule="evenodd" clip-rule="evenodd" d="M26 12a6 6 0 1012 0 6 6 0 00-12 0zm2.771 0A3.229 3.229 0 0132 8.771 3.242 3.242 0 0135.229 12a3.229 3.229 0 01-6.458 0z" fill="#fff"/></svg>