<svg width="1434" height="769" fill="none" xmlns="http://www.w3.org/2000/svg"><g opacity=".3" clip-path="url(#clip0_783_11146)"><mask id="path-1-inside-1_783_11146" fill="#fff"><path d="M566.063 434.542c23.936-26.553 50.531-53.108 79.785-77.006 13.298-10.622 26.596-23.899 42.552-31.865 7.976-5.311 13.295-7.966 21.279-13.277 7.977-2.655 13.295-7.966 21.273-7.966 15.955-5.311 31.916-7.966 45.212-7.966h23.932c2.666 0 7.984 0 10.643 2.655 2.659 0 5.319 0 7.978 2.655h15.954c2.66 0-2.659 0 10.637-2.655 7.984-7.966 13.302-2.655 21.28-26.554 0-29.209-7.978-29.209-7.978-29.209a45736.43 45736.43 0 00-5.318-5.311c-2.659 0-2.659-2.655-5.325-2.655l-5.318-2.656-7.978-2.656c-5.318-2.654-10.636-2.654-15.954-5.31l-13.296-5.311c-2.659 0-5.325-2.655-7.984-2.655-10.637-5.311-21.273-13.277-29.251-23.899-7.977-10.621-15.961-23.898-23.939-39.831-2.659-7.966-5.318-15.932-10.636-26.553-7.977-13.278-10.637-21.244-15.955-31.865-10.636-18.588-21.28-37.176-39.894-53.108 5.319 0 7.979 2.655 13.296 2.655 15.962 5.31 31.916 13.277 47.871 23.898 29.257 18.589 53.19 45.142 71.81 77.007 10.637 15.932 18.614 31.865 26.592 50.453l7.977 13.277c2.659 5.31 2.659 7.966 13.302 15.932 5.319 2.656 10.637 5.31 18.614 5.31 2.659 0 7.978 0 13.296-2.654 2.659 0 5.318-2.656 5.318-5.312 0-2.655 2.659-5.31 2.659-7.965 0-2.656 0-5.311-2.659-7.966-5.318-7.967-7.977-5.312-10.636-7.967h-5.319s-2.659 0-2.659-2.655l2.659-2.656 10.637-7.966c15.962-10.621 31.916-21.243 47.871-29.209 29.257-21.243 63.829-37.176 98.399-50.453 69.15-26.554 143.62-39.83 215.43-37.175 37.22 0 71.8 5.31 109.03 13.277 10.64 2.655 18.62 2.655 29.26 5.31h10.64c2.66 0 5.32 0 10.63-2.655-2.66 2.656-7.97 7.966-10.63 10.622l-42.56 37.175c-23.93 23.899-55.84 42.487-85.1 63.73-10.64 7.966-23.93 13.277-34.58 21.243-7.97 5.31-13.29 7.966-21.27 10.622-7.98 2.654-13.3 5.31-21.27 7.966-7.99 2.655-15.96 5.31-23.94 7.966-7.98 2.655-15.96 5.311-26.59 7.966-5.33 0-10.65 2.655-13.31 5.311-7.97 2.655-26.59 7.966-37.22 15.932-10.65 7.966-21.28 15.933-31.92 29.209l-5.32 5.312c0 2.655-2.66 2.655-2.66 5.31l-5.32 5.311s-2.65 5.31-2.65 7.966c0 2.656-2.67 7.966 0 15.932 0 5.311 5.31 18.588 15.95 26.555 7.98 7.966 15.96 7.966 23.93 10.621h10.65c10.63-2.655 13.29-2.655 15.95-5.311 10.64-5.31 13.3-7.966 18.61-10.622 10.64-7.966 15.97-13.276 23.94-21.243 2.66-2.655 15.96-7.966 34.57-13.276 7.99-2.656 15.96-5.311 26.6-7.967L1207 330.982c-26.59 26.554-53.19 53.108-79.78 77.007-55.85 50.452-111.7 98.249-172.867 143.391-29.258 21.243-61.174 42.486-93.083 58.419-31.917 13.277-69.151 29.209-106.379 23.898l-2.666 7.967c39.894 10.621 79.787 0 114.363-13.278 37.234-13.277 71.803-31.865 103.719-50.452 66.483-39.831 125.003-84.973 186.163-132.77 61.17-47.797 117.02-95.594 175.53-146.047 29.25-26.554 58.51-47.797 85.1-77.007 13.3-13.276 26.6-26.553 39.9-42.486 5.31-7.966 13.29-13.276 18.61-21.243l13.3-15.932 5.32-7.966 2.66-5.312c2.66-2.654 2.66-2.654 5.32-13.276 0-5.311 2.66-2.656 0-15.933-2.66-10.62-5.32-15.932-10.64-21.243V65.442c0-5.31-2.66-13.277-5.32-18.587-5.32-13.277-18.62-21.244-26.59-23.9-18.62-5.31-31.92-5.31-45.22-2.654-5.32 0-13.29 2.655-18.61 5.31h-5.32c-7.98 0-15.96 0-26.6-2.655-34.57-2.655-74.47-5.31-114.35-2.655-79.79 5.31-154.25 26.554-226.06 58.418-34.579 15.933-66.488 34.52-101.064 53.108-15.954 10.622-31.916 21.243-47.871 31.865l-10.636 7.966-5.319 5.311h-2.659c-7.984-15.933-15.961-34.52-23.939-50.452-7.977-15.933-18.614-31.865-31.916-47.798-13.296-15.932-29.25-29.21-45.205-39.83-15.962-10.622-34.576-21.244-53.196-29.21-10.637-2.655-21.273-7.966-31.911-7.966-10.638-2.656-21.276-2.656-37.234 0-5.318 2.655-7.978 2.655-13.296 7.966-5.319 2.655-7.979 10.621-10.638 18.588-2.66 5.31-2.66 13.277 0 21.243 2.659 7.966 5.319 10.622 10.638 15.932 10.637 10.622 21.275 13.277 18.616 15.933 7.978 10.621 15.957 23.898 21.276 39.83l7.979 23.899c2.659 7.966 5.319 18.588 7.978 29.21 7.978 21.243 15.955 39.831 29.258 58.418 2.659 2.656 5.318 7.966 7.977 10.622-2.659 0-5.318 0-5.318 2.655-42.555 18.588-71.81 45.142-98.404 74.351-26.596 29.21-50.531 61.074-69.148 92.939-18.616 31.865-39.892 66.385-47.87 106.216l7.978 2.655c15.957-31.864 42.552-61.074 66.487-87.628zm827.107-408.93s2.66 0 0 0zM648.508 44.198c-2.66 0 0 0 0 0z"/></mask><path d="M566.063 434.542c23.936-26.553 50.531-53.108 79.785-77.006 13.298-10.622 26.596-23.899 42.552-31.865 7.976-5.311 13.295-7.966 21.279-13.277 7.977-2.655 13.295-7.966 21.273-7.966 15.955-5.311 31.916-7.966 45.212-7.966h23.932c2.666 0 7.984 0 10.643 2.655 2.659 0 5.319 0 7.978 2.655h15.954c2.66 0-2.659 0 10.637-2.655 7.984-7.966 13.302-2.655 21.28-26.554 0-29.209-7.978-29.209-7.978-29.209a45736.43 45736.43 0 00-5.318-5.311c-2.659 0-2.659-2.655-5.325-2.655l-5.318-2.656-7.978-2.656c-5.318-2.654-10.636-2.654-15.954-5.31l-13.296-5.311c-2.659 0-5.325-2.655-7.984-2.655-10.637-5.311-21.273-13.277-29.251-23.899-7.977-10.621-15.961-23.898-23.939-39.831-2.659-7.966-5.318-15.932-10.636-26.553-7.977-13.278-10.637-21.244-15.955-31.865-10.636-18.588-21.28-37.176-39.894-53.108 5.319 0 7.979 2.655 13.296 2.655 15.962 5.31 31.916 13.277 47.871 23.898 29.257 18.589 53.19 45.142 71.81 77.007 10.637 15.932 18.614 31.865 26.592 50.453l7.977 13.277c2.659 5.31 2.659 7.966 13.302 15.932 5.319 2.656 10.637 5.31 18.614 5.31 2.659 0 7.978 0 13.296-2.654 2.659 0 5.318-2.656 5.318-5.312 0-2.655 2.659-5.31 2.659-7.965 0-2.656 0-5.311-2.659-7.966-5.318-7.967-7.977-5.312-10.636-7.967h-5.319s-2.659 0-2.659-2.655l2.659-2.656 10.637-7.966c15.962-10.621 31.916-21.243 47.871-29.209 29.257-21.243 63.829-37.176 98.399-50.453 69.15-26.554 143.62-39.83 215.43-37.175 37.22 0 71.8 5.31 109.03 13.277 10.64 2.655 18.62 2.655 29.26 5.31h10.64c2.66 0 5.32 0 10.63-2.655-2.66 2.656-7.97 7.966-10.63 10.622l-42.56 37.175c-23.93 23.899-55.84 42.487-85.1 63.73-10.64 7.966-23.93 13.277-34.58 21.243-7.97 5.31-13.29 7.966-21.27 10.622-7.98 2.654-13.3 5.31-21.27 7.966-7.99 2.655-15.96 5.31-23.94 7.966-7.98 2.655-15.96 5.311-26.59 7.966-5.33 0-10.65 2.655-13.31 5.311-7.97 2.655-26.59 7.966-37.22 15.932-10.65 7.966-21.28 15.933-31.92 29.209l-5.32 5.312c0 2.655-2.66 2.655-2.66 5.31l-5.32 5.311s-2.65 5.31-2.65 7.966c0 2.656-2.67 7.966 0 15.932 0 5.311 5.31 18.588 15.95 26.555 7.98 7.966 15.96 7.966 23.93 10.621h10.65c10.63-2.655 13.29-2.655 15.95-5.311 10.64-5.31 13.3-7.966 18.61-10.622 10.64-7.966 15.97-13.276 23.94-21.243 2.66-2.655 15.96-7.966 34.57-13.276 7.99-2.656 15.96-5.311 26.6-7.967L1207 330.982c-26.59 26.554-53.19 53.108-79.78 77.007-55.85 50.452-111.7 98.249-172.867 143.391-29.258 21.243-61.174 42.486-93.083 58.419-31.917 13.277-69.151 29.209-106.379 23.898l-2.666 7.967c39.894 10.621 79.787 0 114.363-13.278 37.234-13.277 71.803-31.865 103.719-50.452 66.483-39.831 125.003-84.973 186.163-132.77 61.17-47.797 117.02-95.594 175.53-146.047 29.25-26.554 58.51-47.797 85.1-77.007 13.3-13.276 26.6-26.553 39.9-42.486 5.31-7.966 13.29-13.276 18.61-21.243l13.3-15.932 5.32-7.966 2.66-5.312c2.66-2.654 2.66-2.654 5.32-13.276 0-5.311 2.66-2.656 0-15.933-2.66-10.62-5.32-15.932-10.64-21.243V65.442c0-5.31-2.66-13.277-5.32-18.587-5.32-13.277-18.62-21.244-26.59-23.9-18.62-5.31-31.92-5.31-45.22-2.654-5.32 0-13.29 2.655-18.61 5.31h-5.32c-7.98 0-15.96 0-26.6-2.655-34.57-2.655-74.47-5.31-114.35-2.655-79.79 5.31-154.25 26.554-226.06 58.418-34.579 15.933-66.488 34.52-101.064 53.108-15.954 10.622-31.916 21.243-47.871 31.865l-10.636 7.966-5.319 5.311h-2.659c-7.984-15.933-15.961-34.52-23.939-50.452-7.977-15.933-18.614-31.865-31.916-47.798-13.296-15.932-29.25-29.21-45.205-39.83-15.962-10.622-34.576-21.244-53.196-29.21-10.637-2.655-21.273-7.966-31.911-7.966-10.638-2.656-21.276-2.656-37.234 0-5.318 2.655-7.978 2.655-13.296 7.966-5.319 2.655-7.979 10.621-10.638 18.588-2.66 5.31-2.66 13.277 0 21.243 2.659 7.966 5.319 10.622 10.638 15.932 10.637 10.622 21.275 13.277 18.616 15.933 7.978 10.621 15.957 23.898 21.276 39.83l7.979 23.899c2.659 7.966 5.319 18.588 7.978 29.21 7.978 21.243 15.955 39.831 29.258 58.418 2.659 2.656 5.318 7.966 7.977 10.622-2.659 0-5.318 0-5.318 2.655-42.555 18.588-71.81 45.142-98.404 74.351-26.596 29.21-50.531 61.074-69.148 92.939-18.616 31.865-39.892 66.385-47.87 106.216l7.978 2.655c15.957-31.864 42.552-61.074 66.487-87.628zm827.107-408.93s2.66 0 0 0v0zM648.508 44.198c-2.66 0 0 0 0 0v0z" stroke="#D0D0D0" stroke-width="6" mask="url(#path-1-inside-1_783_11146)"/><path d="M1074.89 634.921l.04-.027.03-.03c6.61-5.276 13.22-9.896 19.87-14.547l.02-.012c6.61-4.621 13.27-9.273 19.93-14.587 9.61-5.774 17.9-12.956 27.66-21.412 3.83-3.317 7.88-6.829 12.33-10.53 58.28-47.608 129.8-76.705 201.33-84.64 71.05-7.883 144.66 2.506 205.27 33.682l-1.48 2.965c-66.37-13.07-135.31-10.356-198.94 2.88-64.08 13.33-122.82 42.656-173.53 85.294l-.05.041-.05.045c-10.64 10.633-23.84 23.806-39.65 34.333l-.06.036-.05.04c-6.57 5.248-13.82 9.854-21.45 14.496-1.76 1.066-3.54 2.135-5.33 3.214-5.98 3.596-12.14 7.304-18.29 11.399-31.79 18.51-63.6 31.747-98.12 45.002-68.97 23.838-140.561 34.418-212.141 29.13-71.618-5.299-140.506-23.836-201.412-63.492l-.007-.005-.007-.005-.037-.023c-29.217-18.566-58.561-37.212-90.592-50.54-29.367-13.326-64.057-23.982-96.094-29.314l-.034-.005-.034-.004c-66.683-7.99-130.73-2.666-194.779 18.648-34.417 10.572-71.457 15.849-108.473 13.209-34.103-2.619-70.77-13.036-99.67-31.194v-2.606c68.845 15.408 134.993 4.721 195.786-16.391 31.881-10.61 68.966-21.181 106.003-23.823 37.015-2.639 74.052 2.637 108.467 13.207 61.731 21.34 114.96 55.412 167.469 89.024 6.125 3.92 12.24 7.834 18.357 11.721l.021.014.021.012c58.836 34.713 128.298 45.353 194.965 42.692 66.686-2.66 133.335-18.636 194.629-42.587l.015-.006.016-.006c31.931-13.283 61.311-26.611 88.051-45.298z" stroke="#D0D0D0" stroke-width="3"/></g><defs><clipPath id="clip0_783_11146"><path fill="#fff" d="M0 0h1564v769H0z"/></clipPath></defs></svg>