<svg width="28" height="28" fill="none" xmlns="http://www.w3.org/2000/svg"><path d="M10.694 14.389a.583.583 0 110 1.167.583.583 0 010-1.167z" fill="#fff"/><path fill-rule="evenodd" clip-rule="evenodd" d="M22.413 20.223l5.468 6.89a.546.546 0 01-.428.887H.547a.547.547 0 01-.428-.887l5.468-6.89a.547.547 0 01.429-.207h4.79L6.716 13.6A8.713 8.713 0 015.25 8.75C5.25 3.925 9.175 0 14 0s8.75 3.925 8.75 8.75a8.713 8.713 0 01-1.466 4.851l-4.09 6.415h4.79c.167 0 .325.076.429.207zm2.041 4.332h-3.306l1.866 2.351h3.307l-1.867-2.351zm-9.457-1.094l1.5-2.352h.52l1.867 2.352h-3.887zm-3.494-2.352h-.52l-1.866 2.352h3.886l-1.5-2.352zm-5.12 5.797l1.865-2.351h11.503l1.867 2.351H6.382zm-1.397 0l1.866-2.351H3.545L1.68 26.906h3.307zm2.734-3.445H4.414l1.866-2.352h3.307L7.72 23.461zm12.65-10.462a7.623 7.623 0 001.286-4.249c0-4.222-3.434-7.656-7.656-7.656-4.222 0-7.656 3.434-7.656 7.656 0 1.52.444 2.99 1.285 4.248l.004.007.003.003L14 22.991l6.364-9.983.007-.01zm-.09 10.462l-1.867-2.352h3.307l1.867 2.352H20.28z" fill="#fff"/><path fill-rule="evenodd" clip-rule="evenodd" d="M8.555 8.556a5.445 5.445 0 0010.89 0A5.45 5.45 0 0014 3.11a5.45 5.45 0 00-5.445 5.445zm1.09 0A4.36 4.36 0 0114 4.2a4.356 4.356 0 11-4.356 4.356z" fill="#fff"/><path d="M11.931 16.409a.558.558 0 01.75.179l2.018 3.225a.515.515 0 01-.185.722.558.558 0 01-.75-.179l-2.019-3.225a.515.515 0 01.186-.722z" fill="#fff"/></svg>