<svg width="29" height="32" fill="none" xmlns="http://www.w3.org/2000/svg"><path fill-rule="evenodd" clip-rule="evenodd" d="M19.988 15.577c.452-1.67-.554-3.394-2.242-3.842a1.844 1.844 0 01-1.318-2.258 1.867 1.867 0 012.282-1.304c3.673.974 5.86 4.724 4.877 8.359a1.863 1.863 0 01-2.282 1.303 1.849 1.849 0 01-1.131-.859 1.815 1.815 0 01-.186-1.399zM17.916 9.42a.613.613 0 00.15 1.13c2.349.623 3.748 3.02 3.118 5.345a.618.618 0 00.44.755.625.625 0 00.764-.436c.807-2.981-.987-6.056-4-6.855a.634.634 0 00-.472.061z" fill="#fff"/><path fill-rule="evenodd" clip-rule="evenodd" d="M17.824 4.812c.255-.98 1.236-1.562 2.186-1.3 6.088 1.68 9.713 8.15 8.082 14.421a1.798 1.798 0 01-1.724 1.364 1.781 1.781 0 01-1.545-.92 1.875 1.875 0 01-.179-1.395c1.122-4.313-1.371-8.762-5.557-9.917a1.781 1.781 0 01-1.084-.857 1.875 1.875 0 01-.179-1.396zm8.39 13.24a.596.596 0 00.73-.435c1.462-5.62-1.786-11.417-7.241-12.923a.581.581 0 00-.154-.02.601.601 0 00-.577.455.618.618 0 00.422.753c4.819 1.33 7.689 6.452 6.398 11.416a.627.627 0 00.06.467.591.591 0 00.362.286zm-4.26 3.878a2.98 2.98 0 00-4.047-1.074l-2.506 1.433a.51.51 0 01-.697-.185l-5.642-9.683a.503.503 0 01.187-.69l2.506-1.435a2.925 2.925 0 001.084-4.01L10.412 2.12a2.981 2.981 0 00-4.047-1.075l-.852.487c-4.773 2.731-6.415 8.8-3.659 13.53l2.074 3.56c.17.291.546.391.84.223a.607.607 0 00.226-.833l-2.074-3.56C.943 11.06 1.548 6.879 4.127 4.16l4.029 6.916a1.715 1.715 0 00-.16 1.956l5.642 9.683a1.752 1.752 0 001.79.84l4.005 6.875a8.799 8.799 0 01-4.28-.068 8.698 8.698 0 01-5.321-4.047l-2.068-3.549a.618.618 0 00-.841-.223.607.607 0 00-.225.833l2.068 3.55a9.919 9.919 0 006.07 4.614 10.008 10.008 0 007.585-.99l.85-.486a2.92 2.92 0 001.381-1.783c.205-.757.1-1.549-.296-2.228l-2.402-4.122zM6.13 2.59l.85-.49c.4-.229.867-.29 1.314-.171.447.119.82.403 1.052.8l2.427 4.166a1.71 1.71 0 01-.634 2.344l-1.973 1.129-4.111-7.056a8.803 8.803 0 011.074-.724zm16.527 26.417a1.707 1.707 0 00.634-2.344l-2.402-4.122a1.743 1.743 0 00-2.365-.628l-1.973 1.129 4.086 7.013c.4-.157.79-.344 1.169-.56l.851-.488z" fill="#fff"/><path d="M5.877 19.763a.706.706 0 00-.495.204.703.703 0 000 .99.704.704 0 00.99 0 .703.703 0 00-.494-1.193z" fill="#fff"/></svg>