<svg width="29" height="29" fill="none" xmlns="http://www.w3.org/2000/svg"><path d="M7.971 27.55h.006c.256 0 .463.21.463.467a.465.465 0 01-.463.466h-.006a.465.465 0 01-.463-.466c0-.258.208-.466.463-.466z" fill="#fff"/><path fill-rule="evenodd" clip-rule="evenodd" d="M4.559 5.887L.679 9.74a.546.546 0 00-.162.388V24.14a4.33 4.33 0 001.37 3.162l.006.007.014.015a4.325 4.325 0 002.952 1.159h.738a.546.546 0 000-1.093h-.738c-.64 0-1.236-.186-1.739-.506l8.632-8.632a3.89 3.89 0 015.496 0l6.515 6.515h-7.297a.546.546 0 000 1.093h8.39l1.024 1.024a3.23 3.23 0 01-1.74.506H10.462a.546.546 0 000 1.093H24.14a4.347 4.347 0 004.343-4.343V10.128a.547.547 0 00-.16-.387L24.44 5.86V2.701c0-1.204-.98-2.184-2.185-2.184H6.744c-1.205 0-2.185.98-2.185 2.184v3.186zm-2.722 4.242l2.722-2.703v5.425l-2.722-2.722zM24.44 7.404v5.447l2.723-2.723-2.723-2.724zm2.95 16.736c0 .759-.262 1.457-.7 2.01l-7.002-7.002 7.701-7.702V24.14zm-16.41-6.66a4.984 4.984 0 017.04 0l.896.895 4.433-4.432V2.701c0-.602-.49-1.092-1.093-1.092H6.744c-.603 0-1.093.49-1.093 1.092v11.242l4.432 4.432.897-.896zm-8.672 8.67a3.233 3.233 0 01-.699-2.01V11.446l7.702 7.702-7.003 7.003z" fill="#fff"/><path d="M14.11 5.644h5.442c.299 0 .541.208.541.466 0 .257-.242.466-.541.466H14.11c-.3 0-.542-.209-.542-.466 0-.258.242-.466.542-.466zm-2.737.136a.47.47 0 01.796.33.47.47 0 01-.466.466.47.47 0 01-.33-.796zM9.442 9.372h10.116c.296 0 .535.209.535.466 0 .258-.24.466-.535.466H9.442c-.295 0-.535-.208-.535-.466 0-.257.24-.466.535-.466z" fill="#fff"/></svg>