<svg width="72" height="67" fill="none" xmlns="http://www.w3.org/2000/svg"><path d="M58.664 42.373l-8.945 8.259-4.32-4.723a1.373 1.373 0 00-1.952-.084c-.562.52-.6 1.403-.083 1.97l5.262 5.758c.267.284.637.446 1.024.447.347-.004.68-.133.942-.364l9.955-9.208a1.387 1.387 0 00.083-1.97 1.377 1.377 0 00-1.966-.084z" fill="#fff"/><path fill-rule="evenodd" clip-rule="evenodd" d="M23.55 41A1.46 1.46 0 0125 42.463v9.074A1.461 1.461 0 0123.55 53H7.45A1.461 1.461 0 016 51.537v-9.074A1.461 1.461 0 017.45 41h16.1zM8.9 50.22h13.2v-6.293H8.9v6.292z" fill="#fff"/><path fill-rule="evenodd" clip-rule="evenodd" d="M59.267 29.506v-10.9a1.386 1.386 0 00-.113-.534l-6.04-14.725A5.392 5.392 0 0048.081 0H11.229a5.377 5.377 0 00-5.033 3.347L.127 18.086a1.34 1.34 0 00-.127.52v34.485c.025 2.99 2.471 5.405 5.487 5.414H36.34C39.857 63.569 45.783 67 52.49 67 63.237 67 72 58.323 72 47.648c-.014-8.297-5.36-15.4-12.733-18.142zm-8.79-25.132l5.26 12.784h-17.51L35.985 2.813h12.08a2.557 2.557 0 012.41 1.56zM35.589 19.97H23.253v11.166l12.336-4.81V19.97zm-12.095-2.813l2.354-14.345h7.26l2.24 14.345H23.494zM11.23 2.813a2.557 2.557 0 00-2.41 1.56L3.572 17.159H20.63l2.354-14.345H11.229zm-5.743 52.88a2.659 2.659 0 01-2.651-2.602v-33.12h17.581v13.233a1.4 1.4 0 00.624 1.168c.237.153.512.236.794.239.18.002.358-.032.525-.098l15.171-5.907c.54-.214.894-.732.894-1.308V19.97h18.007v8.72a19.192 19.192 0 00-3.942-.395c-10.748 0-19.51 8.692-19.51 19.352a19.35 19.35 0 001.758 8.03H5.488v.015zm30.329-8.045c0 9.127 7.459 16.525 16.66 16.525 9.187 0 16.674-7.412 16.66-16.525 0-9.126-7.46-16.525-16.66-16.525-9.201 0-16.66 7.399-16.66 16.525z" fill="#fff"/></svg>