<svg width="30" height="30" viewBox="0 0 30 30" fill="none" xmlns="http://www.w3.org/2000/svg">
<g clip-path="url(#clip0_783_10421)">
<path d="M0.933105 20.2174C3.0525 25.9293 8.55064 30 15.0001 30C21.4496 30 26.9477 25.9293 29.0671 20.2174L15.0001 18.9131L0.933105 20.2174Z" fill="#FFDA44"/>
<path d="M15.0001 0C8.55064 0 3.0525 4.07062 0.933105 9.78264L15.0001 11.0869L29.0671 9.78258C26.9477 4.07062 21.4496 0 15.0001 0Z" fill="black"/>
<path d="M0.932988 9.78223C0.330059 11.4072 0 13.1648 0 14.9996C0 16.8344 0.330059 18.592 0.932988 20.217H29.0671C29.67 18.592 30 16.8344 30 14.9996C30 13.1648 29.67 11.4072 29.067 9.78223H0.932988Z" fill="#D80027"/>
</g>
<defs>
<clipPath id="clip0_783_10421">
<rect width="30" height="30" fill="white"/>
</clipPath>
</defs>
</svg>
