<svg width="30" height="30" viewBox="0 0 30 30" fill="none" xmlns="http://www.w3.org/2000/svg">
<g clip-path="url(#clip0_783_10425)">
<path d="M15 30C23.2843 30 30 23.2843 30 15C30 6.71573 23.2843 0 15 0C6.71573 0 0 6.71573 0 15C0 23.2843 6.71573 30 15 30Z" fill="#F0F0F0"/>
<path d="M29.9999 14.9996C29.9999 8.55016 25.9293 3.05201 20.2173 0.932617V29.0667C25.9293 26.9472 29.9999 21.4491 29.9999 14.9996Z" fill="#D80027"/>
<path d="M0 14.9996C0 21.4491 4.07062 26.9472 9.78264 29.0666V0.932617C4.07062 3.05201 0 8.55016 0 14.9996Z" fill="#6DA544"/>
</g>
<defs>
<clipPath id="clip0_783_10425">
<rect width="30" height="30" fill="white"/>
</clipPath>
</defs>
</svg>
