<svg width="30" height="30" viewBox="0 0 30 30" fill="none" xmlns="http://www.w3.org/2000/svg">
<path fill-rule="evenodd" clip-rule="evenodd" d="M15 0C23.2843 0 30 6.71571 30 15C30 23.2843 23.2843 30 15 30C6.71571 30 0 23.2843 0 15C0 6.71571 6.71571 0 15 0Z" fill="#FBFBFB"/>
<path fill-rule="evenodd" clip-rule="evenodd" d="M29.2077 10.1786H0.791016C2.79893 4.25952 8.40167 0 14.9993 0C21.597 0 27.1998 4.25952 29.2077 10.1786Z" fill="#32AB45"/>
<path fill-rule="evenodd" clip-rule="evenodd" d="M29.2077 19.8213C27.1998 25.7403 21.597 29.9999 14.9993 29.9999C8.40167 29.9999 2.79893 25.7403 0.791016 19.8213H29.2077Z" fill="#1D1D1D"/>
<path fill-rule="evenodd" clip-rule="evenodd" d="M8.03571 1.71094V28.2884C3.25843 25.7796 0 20.7701 0 14.9997C0 9.22917 3.25843 4.21975 8.03571 1.71094Z" fill="#E92B2B"/>
</svg>
