<svg width="30" height="30" viewBox="0 0 30 30" fill="none" xmlns="http://www.w3.org/2000/svg">
<g clip-path="url(#clip0_783_10320)">
<path d="M15 30C23.2843 30 30 23.2843 30 15C30 6.71573 23.2843 0 15 0C6.71573 0 0 6.71573 0 15C0 23.2843 6.71573 30 15 30Z" fill="white"/>
<path d="M15 11.0869H29.4833C29.1071 9.69154 28.5355 8.37664 27.7984 7.17383H15V11.0869Z" fill="#338AF3"/>
<path d="M5.66273 26.7392H24.3373C25.7062 25.6489 26.8802 24.3246 27.7984 22.8262H2.20166C3.11988 24.3245 4.29387 25.6489 5.66273 26.7392Z" fill="#338AF3"/>
<path d="M5.21742 3.62891C4.03816 4.64439 3.01869 5.84023 2.20166 7.17359H5.21742V3.62891Z" fill="#338AF3"/>
<path d="M15 15C15 13.4721 15 12.1934 15 11.0869H9.13043V15H5.21736V11.0869H0.516738C0.180469 12.3346 0 13.6461 0 15C0 16.3539 0.180469 17.6654 0.516738 18.913H29.4833C29.8195 17.6654 30 16.3539 30 15H15Z" fill="#338AF3"/>
<path d="M14.9999 0C12.917 0 10.9333 0.42498 9.13037 1.19227V7.17393H14.9999C14.9999 5.80799 14.9999 4.64625 14.9999 3.26086H24.3373C21.7749 1.22016 18.5302 0 14.9999 0Z" fill="#338AF3"/>
</g>
<defs>
<clipPath id="clip0_783_10320">
<rect width="30" height="30" fill="white"/>
</clipPath>
</defs>
</svg>
