<svg width="30" height="30" viewBox="0 0 30 30" fill="none" xmlns="http://www.w3.org/2000/svg">
<g clip-path="url(#clip0_783_10347)">
<path d="M15 30C23.2843 30 30 23.2843 30 15C30 6.71573 23.2843 0 15 0C6.71573 0 0 6.71573 0 15C0 23.2843 6.71573 30 15 30Z" fill="#D80027"/>
<path d="M14.3856 12.2568L15.6164 13.9528L17.6096 13.3065L16.3769 15.0011L17.6075 16.697L15.615 16.0483L14.3824 17.7428L14.3837 15.6474L12.3911 14.9987L14.3844 14.3524L14.3856 12.2568Z" fill="#F0F0F0"/>
<path d="M11.027 19.2388C8.68582 19.2388 6.78785 17.3408 6.78785 14.9996C6.78785 12.6585 8.68582 10.7605 11.027 10.7605C11.757 10.7605 12.4438 10.9451 13.0434 11.27C12.1027 10.35 10.8162 9.78223 9.39656 9.78223C6.51504 9.78223 4.1792 12.1181 4.1792 14.9996C4.1792 17.8811 6.5151 20.217 9.39656 20.217C10.8163 20.217 12.1028 19.6491 13.0434 18.7291C12.4438 19.0542 11.757 19.2388 11.027 19.2388Z" fill="#F0F0F0"/>
</g>
<defs>
<clipPath id="clip0_783_10347">
<rect width="30" height="30" fill="white"/>
</clipPath>
</defs>
</svg>
