<svg width="812" height="769" viewBox="0 0 812 769" fill="none" xmlns="http://www.w3.org/2000/svg">
<g opacity="0.3" clip-path="url(#clip0_783_10175)">
<mask id="path-1-inside-1_783_10175" fill="white">
<path d="M-185.936 434.542C-162 407.989 -135.406 381.434 -106.151 357.536C-92.8534 346.914 -79.5557 333.637 -63.5989 325.671C-55.6229 320.36 -50.3046 317.705 -42.3204 312.394C-34.343 309.739 -29.0248 304.428 -21.0474 304.428C-5.09267 299.117 10.8689 296.462 24.1646 296.462C32.1419 296.462 40.1194 296.462 48.0967 296.462C50.7627 296.462 56.081 296.462 58.7401 299.117C61.3992 299.117 64.0583 299.117 66.7174 301.772C69.3766 301.772 69.3766 301.772 74.6948 301.772C74.6948 301.772 77.3539 301.772 82.6722 301.772C85.3313 301.772 80.0131 301.772 93.3087 299.117C101.293 291.151 106.611 296.462 114.589 272.563C114.589 243.354 106.611 243.354 106.611 243.354C103.952 240.698 101.293 238.043 101.293 238.043C98.6338 238.043 98.6338 235.388 95.9678 235.388L90.6495 232.732L82.6722 230.076C77.3539 227.422 72.0357 227.422 66.7174 224.766L53.4218 219.455C50.7627 219.455 48.0967 216.8 45.4376 216.8C34.8011 211.489 24.1646 203.523 16.1872 192.901C8.20984 182.28 0.225586 169.003 -7.75179 153.07C-10.4109 145.104 -13.07 137.138 -18.3883 126.517C-26.3656 113.239 -29.0248 105.273 -34.343 94.6517C-44.9795 76.0637 -55.6229 57.476 -74.2368 41.5437C-68.9178 41.5437 -66.2587 44.199 -60.9411 44.199C-44.9795 49.5099 -29.0248 57.476 -13.0701 68.0975C16.1872 86.6855 40.1193 113.239 58.7401 145.104C69.3766 161.036 77.3539 176.969 85.3313 195.557L93.3087 208.834C95.9678 214.144 95.9678 216.8 106.611 224.766C111.929 227.422 117.248 230.076 125.225 230.076C127.884 230.076 133.202 230.076 138.521 227.422C141.18 227.422 143.839 224.766 143.839 222.11C143.839 219.455 146.498 216.8 146.498 214.145C146.498 211.489 146.498 208.834 143.839 206.179C138.521 198.212 135.862 200.867 133.202 198.212H130.543C130.543 198.212 130.543 198.212 127.884 198.212C127.884 198.212 125.225 198.212 125.225 195.557L127.884 192.901L138.521 184.935C154.482 174.314 170.437 163.692 186.392 155.726C215.649 134.483 250.225 118.55 284.793 105.273C353.944 78.7193 428.406 65.4422 500.217 68.0975C537.444 68.0975 572.02 73.4087 609.254 81.3749C619.891 84.0299 627.868 84.0299 638.512 86.6855C641.171 86.6855 643.83 86.6855 649.148 86.6855C651.807 86.6855 654.466 86.6855 659.785 84.0299C657.125 86.6855 651.807 91.9961 649.148 94.6517L606.595 131.827C582.656 155.726 550.747 174.314 521.49 195.557C510.853 203.523 497.557 208.834 486.914 216.8C478.937 222.11 473.618 224.766 465.641 227.422C457.664 230.076 452.345 232.732 444.368 235.388C436.384 238.043 428.406 240.698 420.429 243.354C412.452 246.009 404.474 248.665 393.838 251.32C388.513 251.32 383.194 253.975 380.535 256.631C372.558 259.286 353.944 264.597 343.308 272.563C332.664 280.529 322.028 288.496 311.391 301.772C308.732 304.428 308.732 304.428 306.073 307.084C306.073 309.739 303.414 309.739 303.414 312.394L298.096 317.705C298.096 317.705 295.437 323.015 295.437 325.671C295.437 328.327 292.771 333.637 295.437 341.603C295.437 346.914 300.755 360.191 311.391 368.158C319.369 376.124 327.346 376.124 335.323 378.779C340.642 378.779 343.308 378.779 345.967 378.779C356.603 376.124 359.262 376.124 361.922 373.468C372.558 368.158 375.217 365.502 380.535 362.846C391.172 354.88 396.497 349.57 404.474 341.603C407.133 338.948 420.429 333.637 439.043 328.327C447.027 325.671 455.005 323.016 465.641 320.36L455.005 330.982C428.406 357.536 401.815 384.09 375.217 407.989C319.369 458.441 263.52 506.238 202.353 551.38C173.096 572.623 141.18 593.866 109.27 609.799C77.3539 623.076 40.1193 639.008 2.89157 633.697L0.225555 641.664C40.1193 652.285 80.013 641.664 114.589 628.386C151.823 615.109 186.392 596.521 218.308 577.934C284.793 538.103 343.308 492.961 404.474 445.164C465.641 397.367 521.49 349.57 579.997 299.117C609.254 272.563 638.512 251.32 665.103 222.11C678.398 208.834 691.701 195.557 704.997 179.624C710.315 171.658 718.292 166.348 723.61 158.381L736.913 142.449L742.231 134.483L744.89 129.171C747.549 126.517 747.549 126.517 750.209 115.895C750.209 110.584 752.868 113.239 750.209 99.9623C747.549 89.3411 744.89 84.0299 739.572 78.7193C739.572 73.4087 739.572 70.7531 739.572 65.4422C739.572 60.1315 736.913 52.1653 734.254 46.8545C728.929 33.5775 715.633 25.6113 707.656 22.9559C689.042 17.6451 675.739 17.6451 662.444 20.3005C657.125 20.3005 649.148 22.9559 643.83 25.6113H641.171C641.171 25.6113 641.171 25.6113 638.512 25.6113C630.527 25.6113 622.55 25.6113 611.914 22.9559C577.338 20.3005 537.444 17.6451 497.557 20.3005C417.77 25.6113 343.308 46.8545 271.497 78.7193C236.922 94.6517 205.013 113.239 170.437 131.827C154.482 142.449 138.521 153.07 122.566 163.692L111.929 171.658L106.611 176.969C106.611 176.969 106.611 176.969 103.952 176.969C95.9678 161.036 87.9904 142.449 80.0131 126.517C72.0357 110.584 61.3992 94.6517 48.0967 78.7193C34.8011 62.7868 18.8463 49.5099 2.89157 38.8883C-13.0701 28.2667 -31.6839 17.6451 -50.3047 9.67894C-60.9412 7.02351 -71.5777 1.71274 -82.2155 1.71274C-92.8534 -0.942658 -103.491 -0.942658 -119.449 1.71274C-124.768 4.36813 -127.427 4.36813 -132.746 9.67894C-138.065 12.3343 -140.724 20.3005 -143.384 28.2667C-146.043 33.5775 -146.043 41.5437 -143.384 49.5099C-140.724 57.476 -138.065 60.1315 -132.746 65.4422C-122.108 76.0637 -111.47 78.7193 -114.129 81.3749C-106.151 91.9961 -98.1723 105.273 -92.8534 121.205C-90.1943 129.171 -87.5344 137.138 -84.8746 145.104C-82.2155 153.07 -79.5557 163.692 -76.8966 174.314C-68.9178 195.557 -60.9411 214.145 -47.6386 232.732C-44.9795 235.388 -42.3204 240.698 -39.6613 243.354C-42.3204 243.354 -44.9795 243.354 -44.9795 246.009C-87.5344 264.597 -116.789 291.151 -143.384 320.36C-169.979 349.57 -193.915 381.434 -212.531 413.299C-231.147 445.164 -252.424 479.684 -260.402 519.515L-252.424 522.17C-236.466 490.306 -209.871 461.096 -185.936 434.542ZM641.171 25.6113C641.171 25.6113 643.83 25.6113 641.171 25.6113V25.6113ZM-103.491 44.199C-106.151 44.199 -103.491 44.199 -103.491 44.199V44.199Z"/>
</mask>
<path d="M-185.936 434.542C-162 407.989 -135.406 381.434 -106.151 357.536C-92.8534 346.914 -79.5557 333.637 -63.5989 325.671C-55.6229 320.36 -50.3046 317.705 -42.3204 312.394C-34.343 309.739 -29.0248 304.428 -21.0474 304.428C-5.09267 299.117 10.8689 296.462 24.1646 296.462C32.1419 296.462 40.1194 296.462 48.0967 296.462C50.7627 296.462 56.081 296.462 58.7401 299.117C61.3992 299.117 64.0583 299.117 66.7174 301.772C69.3766 301.772 69.3766 301.772 74.6948 301.772C74.6948 301.772 77.3539 301.772 82.6722 301.772C85.3313 301.772 80.0131 301.772 93.3087 299.117C101.293 291.151 106.611 296.462 114.589 272.563C114.589 243.354 106.611 243.354 106.611 243.354C103.952 240.698 101.293 238.043 101.293 238.043C98.6338 238.043 98.6338 235.388 95.9678 235.388L90.6495 232.732L82.6722 230.076C77.3539 227.422 72.0357 227.422 66.7174 224.766L53.4218 219.455C50.7627 219.455 48.0967 216.8 45.4376 216.8C34.8011 211.489 24.1646 203.523 16.1872 192.901C8.20984 182.28 0.225586 169.003 -7.75179 153.07C-10.4109 145.104 -13.07 137.138 -18.3883 126.517C-26.3656 113.239 -29.0248 105.273 -34.343 94.6517C-44.9795 76.0637 -55.6229 57.476 -74.2368 41.5437C-68.9178 41.5437 -66.2587 44.199 -60.9411 44.199C-44.9795 49.5099 -29.0248 57.476 -13.0701 68.0975C16.1872 86.6855 40.1193 113.239 58.7401 145.104C69.3766 161.036 77.3539 176.969 85.3313 195.557L93.3087 208.834C95.9678 214.144 95.9678 216.8 106.611 224.766C111.929 227.422 117.248 230.076 125.225 230.076C127.884 230.076 133.202 230.076 138.521 227.422C141.18 227.422 143.839 224.766 143.839 222.11C143.839 219.455 146.498 216.8 146.498 214.145C146.498 211.489 146.498 208.834 143.839 206.179C138.521 198.212 135.862 200.867 133.202 198.212H130.543C130.543 198.212 130.543 198.212 127.884 198.212C127.884 198.212 125.225 198.212 125.225 195.557L127.884 192.901L138.521 184.935C154.482 174.314 170.437 163.692 186.392 155.726C215.649 134.483 250.225 118.55 284.793 105.273C353.944 78.7193 428.406 65.4422 500.217 68.0975C537.444 68.0975 572.02 73.4087 609.254 81.3749C619.891 84.0299 627.868 84.0299 638.512 86.6855C641.171 86.6855 643.83 86.6855 649.148 86.6855C651.807 86.6855 654.466 86.6855 659.785 84.0299C657.125 86.6855 651.807 91.9961 649.148 94.6517L606.595 131.827C582.656 155.726 550.747 174.314 521.49 195.557C510.853 203.523 497.557 208.834 486.914 216.8C478.937 222.11 473.618 224.766 465.641 227.422C457.664 230.076 452.345 232.732 444.368 235.388C436.384 238.043 428.406 240.698 420.429 243.354C412.452 246.009 404.474 248.665 393.838 251.32C388.513 251.32 383.194 253.975 380.535 256.631C372.558 259.286 353.944 264.597 343.308 272.563C332.664 280.529 322.028 288.496 311.391 301.772C308.732 304.428 308.732 304.428 306.073 307.084C306.073 309.739 303.414 309.739 303.414 312.394L298.096 317.705C298.096 317.705 295.437 323.015 295.437 325.671C295.437 328.327 292.771 333.637 295.437 341.603C295.437 346.914 300.755 360.191 311.391 368.158C319.369 376.124 327.346 376.124 335.323 378.779C340.642 378.779 343.308 378.779 345.967 378.779C356.603 376.124 359.262 376.124 361.922 373.468C372.558 368.158 375.217 365.502 380.535 362.846C391.172 354.88 396.497 349.57 404.474 341.603C407.133 338.948 420.429 333.637 439.043 328.327C447.027 325.671 455.005 323.016 465.641 320.36L455.005 330.982C428.406 357.536 401.815 384.09 375.217 407.989C319.369 458.441 263.52 506.238 202.353 551.38C173.096 572.623 141.18 593.866 109.27 609.799C77.3539 623.076 40.1193 639.008 2.89157 633.697L0.225555 641.664C40.1193 652.285 80.013 641.664 114.589 628.386C151.823 615.109 186.392 596.521 218.308 577.934C284.793 538.103 343.308 492.961 404.474 445.164C465.641 397.367 521.49 349.57 579.997 299.117C609.254 272.563 638.512 251.32 665.103 222.11C678.398 208.834 691.701 195.557 704.997 179.624C710.315 171.658 718.292 166.348 723.61 158.381L736.913 142.449L742.231 134.483L744.89 129.171C747.549 126.517 747.549 126.517 750.209 115.895C750.209 110.584 752.868 113.239 750.209 99.9623C747.549 89.3411 744.89 84.0299 739.572 78.7193C739.572 73.4087 739.572 70.7531 739.572 65.4422C739.572 60.1315 736.913 52.1653 734.254 46.8545C728.929 33.5775 715.633 25.6113 707.656 22.9559C689.042 17.6451 675.739 17.6451 662.444 20.3005C657.125 20.3005 649.148 22.9559 643.83 25.6113H641.171C641.171 25.6113 641.171 25.6113 638.512 25.6113C630.527 25.6113 622.55 25.6113 611.914 22.9559C577.338 20.3005 537.444 17.6451 497.557 20.3005C417.77 25.6113 343.308 46.8545 271.497 78.7193C236.922 94.6517 205.013 113.239 170.437 131.827C154.482 142.449 138.521 153.07 122.566 163.692L111.929 171.658L106.611 176.969C106.611 176.969 106.611 176.969 103.952 176.969C95.9678 161.036 87.9904 142.449 80.0131 126.517C72.0357 110.584 61.3992 94.6517 48.0967 78.7193C34.8011 62.7868 18.8463 49.5099 2.89157 38.8883C-13.0701 28.2667 -31.6839 17.6451 -50.3047 9.67894C-60.9412 7.02351 -71.5777 1.71274 -82.2155 1.71274C-92.8534 -0.942658 -103.491 -0.942658 -119.449 1.71274C-124.768 4.36813 -127.427 4.36813 -132.746 9.67894C-138.065 12.3343 -140.724 20.3005 -143.384 28.2667C-146.043 33.5775 -146.043 41.5437 -143.384 49.5099C-140.724 57.476 -138.065 60.1315 -132.746 65.4422C-122.108 76.0637 -111.47 78.7193 -114.129 81.3749C-106.151 91.9961 -98.1723 105.273 -92.8534 121.205C-90.1943 129.171 -87.5344 137.138 -84.8746 145.104C-82.2155 153.07 -79.5557 163.692 -76.8966 174.314C-68.9178 195.557 -60.9411 214.145 -47.6386 232.732C-44.9795 235.388 -42.3204 240.698 -39.6613 243.354C-42.3204 243.354 -44.9795 243.354 -44.9795 246.009C-87.5344 264.597 -116.789 291.151 -143.384 320.36C-169.979 349.57 -193.915 381.434 -212.531 413.299C-231.147 445.164 -252.424 479.684 -260.402 519.515L-252.424 522.17C-236.466 490.306 -209.871 461.096 -185.936 434.542ZM641.171 25.6113C641.171 25.6113 643.83 25.6113 641.171 25.6113V25.6113ZM-103.491 44.199C-106.151 44.199 -103.491 44.199 -103.491 44.199V44.199Z" stroke="#D0D0D0" stroke-width="6" mask="url(#path-1-inside-1_783_10175)"/>
<path d="M322.887 634.921L322.926 634.894L322.964 634.864C329.568 629.588 336.179 624.968 342.834 620.317L342.851 620.305C349.463 615.684 356.12 611.032 362.779 605.718C372.394 599.944 380.682 592.762 390.439 584.306C394.266 580.989 398.32 577.477 402.768 573.776C461.047 526.168 532.575 497.071 604.101 489.136C675.152 481.253 748.763 491.642 809.371 522.818L807.887 525.783C741.519 512.713 672.581 515.427 608.949 528.663C544.867 541.993 486.129 571.319 435.418 613.957L435.369 613.998L435.324 614.043C424.676 624.676 411.479 637.849 395.666 648.376L395.612 648.412L395.561 648.452C388.989 653.7 381.744 658.306 374.106 662.948C372.352 664.014 370.575 665.083 368.782 666.162C362.805 669.758 356.644 673.466 350.491 677.561C318.702 696.071 286.895 709.308 252.37 722.563C183.4 746.401 111.809 756.981 40.2299 751.693C-31.3884 746.394 -100.277 727.857 -161.182 688.201L-161.189 688.196L-161.196 688.191L-161.234 688.168C-190.45 669.602 -219.794 650.956 -251.826 637.628C-281.193 624.302 -315.882 613.646 -347.92 608.314L-347.953 608.309L-347.987 608.305C-414.671 600.315 -478.718 605.639 -542.767 626.953C-577.184 637.525 -614.224 642.802 -651.239 640.162C-685.342 637.543 -722.009 627.126 -750.91 608.968V606.362C-682.065 621.77 -615.917 611.083 -555.124 589.971C-523.243 579.361 -486.158 568.79 -449.12 566.148C-412.106 563.509 -375.069 568.785 -340.653 579.355C-278.923 600.695 -225.694 634.767 -173.185 668.379C-167.06 672.299 -160.945 676.213 -154.827 680.1L-154.806 680.114L-154.785 680.126C-95.9493 714.839 -26.4871 725.479 40.1791 722.818C106.865 720.158 173.515 704.182 234.809 680.231L234.824 680.225L234.839 680.219C266.769 666.936 296.148 653.608 322.887 634.921Z" stroke="#D0D0D0" stroke-width="3"/>
</g>
<defs>
<clipPath id="clip0_783_10175">
<rect width="1564" height="769" fill="white" transform="translate(-752)"/>
</clipPath>
</defs>
</svg>
