<svg width="1434" height="769" viewBox="0 0 1434 769" fill="none" xmlns="http://www.w3.org/2000/svg">
<g opacity="0.3" clip-path="url(#clip0_783_11146)">
<mask id="path-1-inside-1_783_11146" fill="white">
<path d="M566.063 434.542C589.999 407.989 616.594 381.434 645.848 357.536C659.146 346.914 672.444 333.637 688.4 325.671C696.376 320.36 701.695 317.705 709.679 312.394C717.656 309.739 722.974 304.428 730.952 304.428C746.907 299.117 762.868 296.462 776.164 296.462C784.141 296.462 792.119 296.462 800.096 296.462C802.762 296.462 808.08 296.462 810.739 299.117C813.398 299.117 816.058 299.117 818.717 301.772C821.376 301.772 821.376 301.772 826.694 301.772C826.694 301.772 829.353 301.772 834.671 301.772C837.331 301.772 832.012 301.772 845.308 299.117C853.292 291.151 858.61 296.462 866.588 272.563C866.588 243.354 858.61 243.354 858.61 243.354C855.951 240.698 853.292 238.043 853.292 238.043C850.633 238.043 850.633 235.388 847.967 235.388L842.649 232.732L834.671 230.076C829.353 227.422 824.035 227.422 818.717 224.766L805.421 219.455C802.762 219.455 800.096 216.8 797.437 216.8C786.8 211.489 776.164 203.523 768.186 192.901C760.209 182.28 752.225 169.003 744.247 153.07C741.588 145.104 738.929 137.138 733.611 126.517C725.634 113.239 722.974 105.273 717.656 94.6517C707.02 76.0637 696.376 57.476 677.762 41.5437C683.081 41.5437 685.741 44.199 691.058 44.199C707.02 49.5099 722.974 57.476 738.929 68.0975C768.186 86.6855 792.119 113.239 810.739 145.104C821.376 161.036 829.353 176.969 837.331 195.557L845.308 208.834C847.967 214.144 847.967 216.8 858.61 224.766C863.929 227.422 869.247 230.076 877.224 230.076C879.883 230.076 885.202 230.076 890.52 227.422C893.179 227.422 895.838 224.766 895.838 222.11C895.838 219.455 898.497 216.8 898.497 214.145C898.497 211.489 898.497 208.834 895.838 206.179C890.52 198.212 887.861 200.867 885.202 198.212H882.543C882.543 198.212 882.543 198.212 879.883 198.212C879.883 198.212 877.224 198.212 877.224 195.557L879.883 192.901L890.52 184.935C906.482 174.314 922.436 163.692 938.391 155.726C967.648 134.483 1002.22 118.55 1036.79 105.273C1105.94 78.7193 1180.41 65.4422 1252.22 68.0975C1289.44 68.0975 1324.02 73.4087 1361.25 81.3749C1371.89 84.0299 1379.87 84.0299 1390.51 86.6855C1393.17 86.6855 1395.83 86.6855 1401.15 86.6855C1403.81 86.6855 1406.47 86.6855 1411.78 84.0299C1409.12 86.6855 1403.81 91.9961 1401.15 94.6517L1358.59 131.827C1334.66 155.726 1302.75 174.314 1273.49 195.557C1262.85 203.523 1249.56 208.834 1238.91 216.8C1230.94 222.11 1225.62 224.766 1217.64 227.422C1209.66 230.076 1204.34 232.732 1196.37 235.388C1188.38 238.043 1180.41 240.698 1172.43 243.354C1164.45 246.009 1156.47 248.665 1145.84 251.32C1140.51 251.32 1135.19 253.975 1132.53 256.631C1124.56 259.286 1105.94 264.597 1095.31 272.563C1084.66 280.529 1074.03 288.496 1063.39 301.772C1060.73 304.428 1060.73 304.428 1058.07 307.084C1058.07 309.739 1055.41 309.739 1055.41 312.394L1050.09 317.705C1050.09 317.705 1047.44 323.015 1047.44 325.671C1047.44 328.327 1044.77 333.637 1047.44 341.603C1047.44 346.914 1052.75 360.191 1063.39 368.158C1071.37 376.124 1079.35 376.124 1087.32 378.779C1092.64 378.779 1095.31 378.779 1097.97 378.779C1108.6 376.124 1111.26 376.124 1113.92 373.468C1124.56 368.158 1127.22 365.502 1132.53 362.846C1143.17 354.88 1148.5 349.57 1156.47 341.603C1159.13 338.948 1172.43 333.637 1191.04 328.327C1199.03 325.671 1207 323.016 1217.64 320.36L1207 330.982C1180.41 357.536 1153.81 384.09 1127.22 407.989C1071.37 458.441 1015.52 506.238 954.353 551.38C925.095 572.623 893.179 593.866 861.27 609.799C829.353 623.076 792.119 639.008 754.891 633.697L752.225 641.664C792.119 652.285 832.012 641.664 866.588 628.386C903.822 615.109 938.391 596.521 970.307 577.934C1036.79 538.103 1095.31 492.961 1156.47 445.164C1217.64 397.367 1273.49 349.57 1332 299.117C1361.25 272.563 1390.51 251.32 1417.1 222.11C1430.4 208.834 1443.7 195.557 1457 179.624C1462.31 171.658 1470.29 166.348 1475.61 158.381L1488.91 142.449L1494.23 134.483L1496.89 129.171C1499.55 126.517 1499.55 126.517 1502.21 115.895C1502.21 110.584 1504.87 113.239 1502.21 99.9623C1499.55 89.3411 1496.89 84.0299 1491.57 78.7193C1491.57 73.4087 1491.57 70.7531 1491.57 65.4422C1491.57 60.1315 1488.91 52.1653 1486.25 46.8545C1480.93 33.5775 1467.63 25.6113 1459.66 22.9559C1441.04 17.6451 1427.74 17.6451 1414.44 20.3005C1409.12 20.3005 1401.15 22.9559 1395.83 25.6113H1393.17C1393.17 25.6113 1393.17 25.6113 1390.51 25.6113C1382.53 25.6113 1374.55 25.6113 1363.91 22.9559C1329.34 20.3005 1289.44 17.6451 1249.56 20.3005C1169.77 25.6113 1095.31 46.8545 1023.5 78.7193C988.921 94.6517 957.012 113.239 922.436 131.827C906.482 142.449 890.52 153.07 874.565 163.692L863.929 171.658L858.61 176.969C858.61 176.969 858.61 176.969 855.951 176.969C847.967 161.036 839.99 142.449 832.012 126.517C824.035 110.584 813.398 94.6517 800.096 78.7193C786.8 62.7868 770.846 49.5099 754.891 38.8883C738.929 28.2667 720.315 17.6451 701.695 9.67894C691.058 7.02351 680.422 1.71274 669.784 1.71274C659.146 -0.942658 648.508 -0.942658 632.55 1.71274C627.232 4.36813 624.572 4.36813 619.254 9.67894C613.935 12.3343 611.275 20.3005 608.616 28.2667C605.956 33.5775 605.956 41.5437 608.616 49.5099C611.275 57.476 613.935 60.1315 619.254 65.4422C629.891 76.0637 640.529 78.7193 637.87 81.3749C645.848 91.9961 653.827 105.273 659.146 121.205C661.805 129.171 664.465 137.138 667.125 145.104C669.784 153.07 672.444 163.692 675.103 174.314C683.081 195.557 691.058 214.145 704.361 232.732C707.02 235.388 709.679 240.698 712.338 243.354C709.679 243.354 707.02 243.354 707.02 246.009C664.465 264.597 635.21 291.151 608.616 320.36C582.02 349.57 558.085 381.434 539.468 413.299C520.852 445.164 499.576 479.684 491.598 519.515L499.576 522.17C515.533 490.306 542.128 461.096 566.063 434.542ZM1393.17 25.6113C1393.17 25.6113 1395.83 25.6113 1393.17 25.6113V25.6113ZM648.508 44.199C645.848 44.199 648.508 44.199 648.508 44.199V44.199Z"/>
</mask>
<path d="M566.063 434.542C589.999 407.989 616.594 381.434 645.848 357.536C659.146 346.914 672.444 333.637 688.4 325.671C696.376 320.36 701.695 317.705 709.679 312.394C717.656 309.739 722.974 304.428 730.952 304.428C746.907 299.117 762.868 296.462 776.164 296.462C784.141 296.462 792.119 296.462 800.096 296.462C802.762 296.462 808.08 296.462 810.739 299.117C813.398 299.117 816.058 299.117 818.717 301.772C821.376 301.772 821.376 301.772 826.694 301.772C826.694 301.772 829.353 301.772 834.671 301.772C837.331 301.772 832.012 301.772 845.308 299.117C853.292 291.151 858.61 296.462 866.588 272.563C866.588 243.354 858.61 243.354 858.61 243.354C855.951 240.698 853.292 238.043 853.292 238.043C850.633 238.043 850.633 235.388 847.967 235.388L842.649 232.732L834.671 230.076C829.353 227.422 824.035 227.422 818.717 224.766L805.421 219.455C802.762 219.455 800.096 216.8 797.437 216.8C786.8 211.489 776.164 203.523 768.186 192.901C760.209 182.28 752.225 169.003 744.247 153.07C741.588 145.104 738.929 137.138 733.611 126.517C725.634 113.239 722.974 105.273 717.656 94.6517C707.02 76.0637 696.376 57.476 677.762 41.5437C683.081 41.5437 685.741 44.199 691.058 44.199C707.02 49.5099 722.974 57.476 738.929 68.0975C768.186 86.6855 792.119 113.239 810.739 145.104C821.376 161.036 829.353 176.969 837.331 195.557L845.308 208.834C847.967 214.144 847.967 216.8 858.61 224.766C863.929 227.422 869.247 230.076 877.224 230.076C879.883 230.076 885.202 230.076 890.52 227.422C893.179 227.422 895.838 224.766 895.838 222.11C895.838 219.455 898.497 216.8 898.497 214.145C898.497 211.489 898.497 208.834 895.838 206.179C890.52 198.212 887.861 200.867 885.202 198.212H882.543C882.543 198.212 882.543 198.212 879.883 198.212C879.883 198.212 877.224 198.212 877.224 195.557L879.883 192.901L890.52 184.935C906.482 174.314 922.436 163.692 938.391 155.726C967.648 134.483 1002.22 118.55 1036.79 105.273C1105.94 78.7193 1180.41 65.4422 1252.22 68.0975C1289.44 68.0975 1324.02 73.4087 1361.25 81.3749C1371.89 84.0299 1379.87 84.0299 1390.51 86.6855C1393.17 86.6855 1395.83 86.6855 1401.15 86.6855C1403.81 86.6855 1406.47 86.6855 1411.78 84.0299C1409.12 86.6855 1403.81 91.9961 1401.15 94.6517L1358.59 131.827C1334.66 155.726 1302.75 174.314 1273.49 195.557C1262.85 203.523 1249.56 208.834 1238.91 216.8C1230.94 222.11 1225.62 224.766 1217.64 227.422C1209.66 230.076 1204.34 232.732 1196.37 235.388C1188.38 238.043 1180.41 240.698 1172.43 243.354C1164.45 246.009 1156.47 248.665 1145.84 251.32C1140.51 251.32 1135.19 253.975 1132.53 256.631C1124.56 259.286 1105.94 264.597 1095.31 272.563C1084.66 280.529 1074.03 288.496 1063.39 301.772C1060.73 304.428 1060.73 304.428 1058.07 307.084C1058.07 309.739 1055.41 309.739 1055.41 312.394L1050.09 317.705C1050.09 317.705 1047.44 323.015 1047.44 325.671C1047.44 328.327 1044.77 333.637 1047.44 341.603C1047.44 346.914 1052.75 360.191 1063.39 368.158C1071.37 376.124 1079.35 376.124 1087.32 378.779C1092.64 378.779 1095.31 378.779 1097.97 378.779C1108.6 376.124 1111.26 376.124 1113.92 373.468C1124.56 368.158 1127.22 365.502 1132.53 362.846C1143.17 354.88 1148.5 349.57 1156.47 341.603C1159.13 338.948 1172.43 333.637 1191.04 328.327C1199.03 325.671 1207 323.016 1217.64 320.36L1207 330.982C1180.41 357.536 1153.81 384.09 1127.22 407.989C1071.37 458.441 1015.52 506.238 954.353 551.38C925.095 572.623 893.179 593.866 861.27 609.799C829.353 623.076 792.119 639.008 754.891 633.697L752.225 641.664C792.119 652.285 832.012 641.664 866.588 628.386C903.822 615.109 938.391 596.521 970.307 577.934C1036.79 538.103 1095.31 492.961 1156.47 445.164C1217.64 397.367 1273.49 349.57 1332 299.117C1361.25 272.563 1390.51 251.32 1417.1 222.11C1430.4 208.834 1443.7 195.557 1457 179.624C1462.31 171.658 1470.29 166.348 1475.61 158.381L1488.91 142.449L1494.23 134.483L1496.89 129.171C1499.55 126.517 1499.55 126.517 1502.21 115.895C1502.21 110.584 1504.87 113.239 1502.21 99.9623C1499.55 89.3411 1496.89 84.0299 1491.57 78.7193C1491.57 73.4087 1491.57 70.7531 1491.57 65.4422C1491.57 60.1315 1488.91 52.1653 1486.25 46.8545C1480.93 33.5775 1467.63 25.6113 1459.66 22.9559C1441.04 17.6451 1427.74 17.6451 1414.44 20.3005C1409.12 20.3005 1401.15 22.9559 1395.83 25.6113H1393.17C1393.17 25.6113 1393.17 25.6113 1390.51 25.6113C1382.53 25.6113 1374.55 25.6113 1363.91 22.9559C1329.34 20.3005 1289.44 17.6451 1249.56 20.3005C1169.77 25.6113 1095.31 46.8545 1023.5 78.7193C988.921 94.6517 957.012 113.239 922.436 131.827C906.482 142.449 890.52 153.07 874.565 163.692L863.929 171.658L858.61 176.969C858.61 176.969 858.61 176.969 855.951 176.969C847.967 161.036 839.99 142.449 832.012 126.517C824.035 110.584 813.398 94.6517 800.096 78.7193C786.8 62.7868 770.846 49.5099 754.891 38.8883C738.929 28.2667 720.315 17.6451 701.695 9.67894C691.058 7.02351 680.422 1.71274 669.784 1.71274C659.146 -0.942658 648.508 -0.942658 632.55 1.71274C627.232 4.36813 624.572 4.36813 619.254 9.67894C613.935 12.3343 611.275 20.3005 608.616 28.2667C605.956 33.5775 605.956 41.5437 608.616 49.5099C611.275 57.476 613.935 60.1315 619.254 65.4422C629.891 76.0637 640.529 78.7193 637.87 81.3749C645.848 91.9961 653.827 105.273 659.146 121.205C661.805 129.171 664.465 137.138 667.125 145.104C669.784 153.07 672.444 163.692 675.103 174.314C683.081 195.557 691.058 214.145 704.361 232.732C707.02 235.388 709.679 240.698 712.338 243.354C709.679 243.354 707.02 243.354 707.02 246.009C664.465 264.597 635.21 291.151 608.616 320.36C582.02 349.57 558.085 381.434 539.468 413.299C520.852 445.164 499.576 479.684 491.598 519.515L499.576 522.17C515.533 490.306 542.128 461.096 566.063 434.542ZM1393.17 25.6113C1393.17 25.6113 1395.83 25.6113 1393.17 25.6113V25.6113ZM648.508 44.199C645.848 44.199 648.508 44.199 648.508 44.199V44.199Z" stroke="#D0D0D0" stroke-width="6" mask="url(#path-1-inside-1_783_11146)"/>
<path d="M1074.89 634.921L1074.93 634.894L1074.96 634.864C1081.57 629.588 1088.18 624.968 1094.83 620.317L1094.85 620.305C1101.46 615.684 1108.12 611.032 1114.78 605.718C1124.39 599.944 1132.68 592.762 1142.44 584.306C1146.27 580.989 1150.32 577.477 1154.77 573.776C1213.05 526.168 1284.57 497.071 1356.1 489.136C1427.15 481.253 1500.76 491.642 1561.37 522.818L1559.89 525.783C1493.52 512.713 1424.58 515.427 1360.95 528.663C1296.87 541.993 1238.13 571.319 1187.42 613.957L1187.37 613.998L1187.32 614.043C1176.68 624.676 1163.48 637.849 1147.67 648.376L1147.61 648.412L1147.56 648.452C1140.99 653.7 1133.74 658.306 1126.11 662.948C1124.35 664.014 1122.57 665.083 1120.78 666.162C1114.8 669.758 1108.64 673.466 1102.49 677.561C1070.7 696.071 1038.89 709.308 1004.37 722.563C935.4 746.401 863.809 756.981 792.229 751.693C720.611 746.394 651.723 727.857 590.817 688.201L590.81 688.196L590.803 688.191L590.766 688.168C561.549 669.602 532.205 650.956 500.174 637.628C470.807 624.302 436.117 613.646 404.08 608.314L404.046 608.309L404.012 608.305C337.329 600.315 273.282 605.639 209.233 626.953C174.816 637.525 137.776 642.802 100.76 640.162C66.6574 637.543 29.9908 627.126 1.08984 608.968V606.362C69.9349 621.77 136.083 611.083 196.876 589.971C228.757 579.361 265.842 568.79 302.879 566.148C339.894 563.509 376.931 568.785 411.346 579.355C473.077 600.695 526.306 634.767 578.815 668.379C584.94 672.299 591.055 676.213 597.172 680.1L597.193 680.114L597.214 680.126C656.05 714.839 725.512 725.479 792.179 722.818C858.865 720.158 925.514 704.182 986.808 680.231L986.823 680.225L986.839 680.219C1018.77 666.936 1048.15 653.608 1074.89 634.921Z" stroke="#D0D0D0" stroke-width="3"/>
</g>
<defs>
<clipPath id="clip0_783_11146">
<rect width="1564" height="769" fill="white"/>
</clipPath>
</defs>
</svg>
