<svg width="29" height="32" viewBox="0 0 29 32" fill="none" xmlns="http://www.w3.org/2000/svg">
<path fill-rule="evenodd" clip-rule="evenodd" d="M19.9875 15.5774C20.4399 13.9065 19.4342 12.1828 17.7459 11.7351C16.7536 11.4719 16.1626 10.4589 16.4284 9.47705C16.6944 8.49504 17.7177 7.91027 18.7102 8.17339C22.3833 9.14736 24.5708 12.8969 23.5866 16.5317C23.3639 17.3545 22.6092 17.8985 21.7866 17.8985C21.6274 17.8985 21.4658 17.8781 21.3048 17.8355C20.8241 17.708 20.4225 17.4029 20.1736 16.9764C19.9248 16.55 19.8587 16.0531 19.9875 15.5774ZM17.9166 9.42035C17.7725 9.50269 17.6694 9.6356 17.6263 9.79471C17.5374 10.123 17.7351 10.4617 18.0669 10.5498C20.4158 11.1727 21.8146 13.5705 21.1854 15.8951C21.1423 16.0541 21.1644 16.2203 21.2476 16.3629C21.3308 16.5055 21.4652 16.6075 21.6259 16.6501C21.9576 16.738 22.3 16.5425 22.3889 16.2142C23.1961 13.2329 21.4019 10.1577 18.3894 9.3588C18.3357 9.34457 18.2812 9.33751 18.227 9.33751C18.1192 9.33751 18.0126 9.36549 17.9166 9.42035Z" fill="white"/>
<path fill-rule="evenodd" clip-rule="evenodd" d="M17.8243 4.81243C18.0791 3.83295 19.06 3.24969 20.0104 3.51207C26.098 5.1925 29.7234 11.6619 28.0923 17.9335C27.8788 18.7541 27.1557 19.2967 26.3677 19.2967C26.2152 19.2967 26.0603 19.2764 25.9061 19.2338C25.4456 19.1067 25.0607 18.8024 24.8223 18.377C24.5839 17.9517 24.5206 17.4561 24.644 16.9816C25.7656 12.669 23.2725 8.22025 19.0865 7.06463C18.626 6.93751 18.241 6.63327 18.0026 6.20785C17.7642 5.78249 17.7009 5.28688 17.8243 4.81243ZM26.2136 18.0514C26.5317 18.1392 26.8595 17.9442 26.9447 17.6166C28.4062 11.9971 25.1576 6.20021 19.703 4.69432C19.6514 4.68012 19.5996 4.67333 19.5486 4.67333C19.2851 4.67333 19.0434 4.85473 18.9719 5.12916C18.8868 5.4566 19.0761 5.79444 19.394 5.8822C24.2128 7.2125 27.0827 12.3337 25.7916 17.2983C25.7504 17.4569 25.7715 17.6227 25.8513 17.7649L25.8513 17.765C25.931 17.9072 26.0596 18.0089 26.2136 18.0514Z" fill="white"/>
<path fill-rule="evenodd" clip-rule="evenodd" d="M21.9543 21.9303C21.1374 20.5284 19.322 20.0462 17.9072 20.8557L15.401 22.2894C15.2831 22.357 15.1456 22.375 15.0136 22.3399C14.8819 22.305 14.7719 22.2213 14.7037 22.1043L9.06169 12.4208C8.99356 12.3037 8.9754 12.1675 9.01073 12.037C9.046 11.9064 9.13045 11.7974 9.2485 11.7299L11.7546 10.2961C13.1694 9.48671 13.6559 7.68768 12.8391 6.28581L10.4117 2.11962C9.5949 0.717698 7.77936 0.235753 6.36457 1.04503L5.51315 1.53216C0.739756 4.26301 -0.901538 10.3328 1.8543 15.0627L3.92793 18.6216C4.09787 18.9133 4.47425 19.0132 4.7687 18.8448C5.06309 18.6764 5.16398 18.3034 4.99397 18.0117L2.92041 14.4528C0.942871 11.0588 1.54797 6.87834 4.12667 4.15914L8.15592 11.0745C8.00119 11.2617 7.8867 11.4807 7.82165 11.7213C7.70125 12.1666 7.76305 12.6316 7.99565 13.0307L13.6377 22.7142C13.8702 23.1134 14.2457 23.3989 14.6951 23.5182C14.9379 23.5827 15.1866 23.594 15.4275 23.5548L19.433 30.4294C18.039 30.7567 16.5765 30.7389 15.1537 30.3612C12.8923 29.7607 11.0022 28.3236 9.83162 26.3144L7.7636 22.7651C7.5936 22.4733 7.21722 22.3734 6.92283 22.5419C6.62844 22.7103 6.52755 23.0833 6.69756 23.375L8.76558 26.9243C10.1005 29.2156 12.2561 30.8546 14.8352 31.5394C15.6964 31.768 16.5702 31.8812 17.4386 31.8812C19.1706 31.8812 20.8801 31.431 22.4203 30.5499L23.2718 30.0627C23.9571 29.6706 24.4474 29.0375 24.6521 28.2801C24.857 27.5227 24.7519 26.7315 24.3561 26.0524L21.9543 21.9303ZM6.12859 2.5886L6.98001 2.10147C7.38058 1.87226 7.84731 1.81146 8.29404 1.93002C8.74083 2.04865 9.11426 2.33262 9.34556 2.72954L11.773 6.89574C12.2504 7.71514 11.9661 8.76668 11.1391 9.23978L9.16602 10.3686L5.05485 3.31261C5.38956 3.04913 5.74753 2.80664 6.12859 2.5886ZM22.6561 29.0064C23.0566 28.7772 23.3433 28.4072 23.4629 27.9645C23.5827 27.5218 23.5213 27.0593 23.29 26.6624L20.8883 22.5402C20.4109 21.7208 19.3497 21.4391 18.5227 21.9121L16.5496 23.0409L20.6358 30.0542C21.0352 29.8973 21.4258 29.7103 21.8047 29.4936L22.6561 29.0064Z" fill="white"/>
<path d="M5.87738 19.7627C5.6928 19.7627 5.51312 19.8375 5.38238 19.9675C5.25233 20.0976 5.17822 20.2773 5.17822 20.4618C5.17822 20.6457 5.25233 20.8261 5.38238 20.9561C5.51312 21.0862 5.6935 21.161 5.87738 21.161C6.06125 21.161 6.24163 21.0862 6.37168 20.9561C6.50172 20.8261 6.57653 20.6457 6.57653 20.4618C6.57653 20.2773 6.50172 20.0976 6.37168 19.9675C6.24163 19.8374 6.06125 19.7627 5.87738 19.7627Z" fill="white"/>
</svg>
