<svg width="28" height="28" viewBox="0 0 28 28" fill="none" xmlns="http://www.w3.org/2000/svg">
<path d="M10.6945 14.3887C11.0165 14.3887 11.2778 14.65 11.2778 14.972C11.2778 15.294 11.0165 15.5553 10.6945 15.5553C10.3725 15.5553 10.1112 15.294 10.1112 14.972C10.1112 14.65 10.3725 14.3887 10.6945 14.3887Z" fill="white"/>
<path fill-rule="evenodd" clip-rule="evenodd" d="M22.4127 20.2226L27.8815 27.1133C28.012 27.2775 28.0368 27.502 27.9456 27.6909C27.8543 27.8799 27.6629 28 27.4532 28H0.54693C0.337152 28 0.145746 27.8799 0.0545292 27.6909C-0.0369015 27.502 -0.0119076 27.2775 0.118616 27.1133L5.58736 20.2226C5.69097 20.0919 5.84884 20.0156 6.01568 20.0156H10.8062L6.71636 13.601C5.75698 12.1626 5.25005 10.4853 5.25005 8.75C5.25005 3.92532 9.17516 0 14 0C18.8249 0 22.75 3.92532 22.75 8.75C22.75 10.4853 22.2431 12.1624 21.2837 13.601L17.1939 20.0156H21.9844C22.1513 20.0156 22.3089 20.0919 22.4127 20.2226ZM24.4545 24.5547H21.1479L23.0141 26.9062H26.321L24.4545 24.5547ZM14.9972 23.4609L16.4964 21.1094H17.017L18.8835 23.4609H14.9972ZM11.5034 21.1094H10.9828L9.11663 23.4609H13.0026L11.5034 21.1094ZM6.38226 26.9062L8.24846 24.5547H19.7514L21.6178 26.9062H6.38226ZM4.9858 26.9062L6.85223 24.5547H3.54534L1.67913 26.9062H4.9858ZM7.72017 23.4609H4.4135L6.27971 21.1094H9.5866L7.72017 23.4609ZM20.3707 12.9985C21.2117 11.7394 21.6563 10.2704 21.6563 8.75C21.6563 4.52838 18.2217 1.09375 14 1.09375C9.77843 1.09375 6.3438 4.52838 6.3438 8.75C6.3438 10.2704 6.78835 11.7394 7.62917 12.9985C7.63074 13.0007 7.63211 13.0028 7.63349 13.0049L7.63558 13.0081C7.99468 13.5715 13.7234 22.5569 14 22.9905L20.3645 13.0081C20.3664 13.0049 20.3686 13.0017 20.3707 12.9985ZM20.2797 23.4609L18.4135 21.1094H21.7202L23.5866 23.4609H20.2797Z" fill="white"/>
<path fill-rule="evenodd" clip-rule="evenodd" d="M8.55545 8.55577C8.55545 11.5798 11.011 14.0002 13.9999 14.0002C16.988 14.0002 19.4443 11.5806 19.4443 8.55577C19.4443 5.55367 17.002 3.11133 13.9999 3.11133C10.9978 3.11133 8.55545 5.55367 8.55545 8.55577ZM9.64434 8.5558C9.64434 6.15407 11.5982 4.20024 13.9999 4.20024C16.4016 4.20024 18.3554 6.15407 18.3554 8.5558C18.3554 10.9798 16.3865 12.9114 13.9999 12.9114C11.6139 12.9114 9.64434 10.9798 9.64434 8.5558Z" fill="white"/>
<path d="M11.931 16.4086C12.1892 16.2586 12.525 16.3387 12.6807 16.5876L14.6993 19.8131C14.8551 20.0619 14.7719 20.3851 14.5135 20.5351C14.2541 20.6858 13.9189 20.604 13.7638 20.3562L11.7452 17.1306C11.5895 16.8818 11.6727 16.5586 11.931 16.4086Z" fill="white"/>
</svg>
