<svg width="29" height="29" viewBox="0 0 29 29" fill="none" xmlns="http://www.w3.org/2000/svg">
<path d="M7.97143 27.5508H7.97722C8.23301 27.5508 8.44043 27.7595 8.44043 28.0169C8.44043 28.2743 8.23301 28.483 7.97722 28.483H7.97143C7.71565 28.483 7.50823 28.2743 7.50823 28.0169C7.50823 27.7595 7.71565 27.5508 7.97143 27.5508Z" fill="white"/>
<path fill-rule="evenodd" clip-rule="evenodd" d="M4.55878 5.8868L0.67816 9.74006C0.574871 9.84259 0.516808 9.98214 0.516808 10.1277V24.1403C0.516808 25.3855 1.0444 26.5091 1.88682 27.3017L1.89297 27.3087C1.89759 27.3139 1.90219 27.3192 1.90719 27.3242C1.92445 27.3414 1.9428 27.3567 1.96165 27.3712C2.73083 28.0617 3.74662 28.4827 4.8592 28.4827H5.59659C5.89821 28.4827 6.1428 28.2381 6.1428 27.9365C6.1428 27.6349 5.89821 27.3903 5.59659 27.3903H4.8592C4.21975 27.3903 3.62339 27.2039 3.12017 26.8837L11.7521 18.2518C13.2672 16.7366 15.7325 16.7366 17.2477 18.2518L23.7632 24.7673H16.4663C16.1647 24.7673 15.9201 25.0119 15.9201 25.3135C15.9201 25.6151 16.1647 25.8597 16.4663 25.8597H24.8556L25.8796 26.8837C25.3763 27.2039 24.78 27.3903 24.1405 27.3903H10.4616C10.16 27.3903 9.91538 27.6349 9.91538 27.9365C9.91538 28.2381 10.16 28.4827 10.4616 28.4827H24.1405C26.5349 28.4827 28.4829 26.5347 28.4829 24.1403V10.1277C28.4829 9.9828 28.4253 9.8439 28.3229 9.74137L24.4409 5.85944V2.70145C24.4409 1.49673 23.4608 0.516602 22.2561 0.516602H6.74364C5.53891 0.516602 4.55878 1.49673 4.55878 2.70145V5.8868ZM1.83685 10.129L4.55879 7.42629V12.8509L1.83685 10.129ZM24.4409 7.40438V12.8509L27.1642 10.1276L24.4409 7.40438ZM27.3905 24.1403C27.3905 24.8988 27.1286 25.5969 26.6914 26.1505L19.6889 19.148L27.3905 11.4464V24.1403ZM10.9796 17.4793C12.9207 15.5383 16.0791 15.5383 18.0202 17.4793L18.9164 18.3755L23.3485 13.9434V2.70143C23.3485 2.09907 22.8584 1.60901 22.2561 1.60901H6.74364C6.14128 1.60901 5.65121 2.09907 5.65121 2.70143V13.9434L10.0833 18.3755L10.9796 17.4793ZM2.30839 26.1505C1.87115 25.5969 1.60924 24.8988 1.60924 24.1403V11.4464L9.31084 19.148L2.30839 26.1505Z" fill="white"/>
<path d="M14.1095 5.64355H19.5516C19.8507 5.64355 20.0933 5.85228 20.0933 6.10966C20.0933 6.36704 19.8507 6.57576 19.5516 6.57576H14.1095C13.8104 6.57576 13.5678 6.36704 13.5678 6.10966C13.5678 5.85228 13.8104 5.64355 14.1095 5.64355Z" fill="white"/>
<path d="M11.3733 5.78012C11.4605 5.69343 11.5807 5.64355 11.7033 5.64355C11.8259 5.64355 11.9462 5.69338 12.0329 5.78012C12.1196 5.86686 12.1694 5.98707 12.1694 6.10966C12.1694 6.23224 12.1196 6.3525 12.0329 6.43914C11.9457 6.52589 11.8259 6.57576 11.7033 6.57576C11.5807 6.57576 11.4605 6.52589 11.3733 6.43914C11.2867 6.3525 11.2372 6.23224 11.2372 6.10966C11.2372 5.98707 11.2867 5.86682 11.3733 5.78012Z" fill="white"/>
<path d="M9.44221 9.37207H19.5579C19.8535 9.37207 20.0933 9.58079 20.0933 9.83817C20.0933 10.0956 19.8535 10.3043 19.5579 10.3043H9.44221C9.14657 10.3043 8.90682 10.0956 8.90682 9.83817C8.90682 9.58079 9.14657 9.37207 9.44221 9.37207Z" fill="white"/>
</svg>
