<svg width="214" height="80" viewBox="0 0 214 80" fill="none" xmlns="http://www.w3.org/2000/svg">
<g clip-path="url(#clip0_1_159)">
<path d="M204.159 49.7862C207.461 49.4192 207.828 48.9299 207.828 44.7709C207.828 43.0583 207.828 41.3458 207.828 39.5109C209.663 38.8993 210.275 36.9421 210.275 34.618C210.275 33.5171 210.397 32.5385 210.275 31.4375C210.152 29.6027 209.908 27.7678 211.498 26.5446C211.865 26.2999 211.987 25.566 212.11 24.9544C212.599 22.3856 212.966 19.9391 213.455 17.3703C213.7 15.2908 212.844 13.9452 211.009 13.9452C208.929 13.9452 206.85 14.0675 204.893 14.0675C195.963 13.9452 187.033 13.7005 178.226 13.5782C169.419 13.3336 160.489 12.9666 151.682 12.722C144.587 12.4773 137.37 12.355 130.275 12.355C119.266 12.355 60.0607 14.8015 49.0515 15.1684C38.0424 15.6577 26.9109 16.7586 15.9017 17.7372C13.5775 17.9819 11.2534 18.3489 8.92921 18.7158C8.07295 18.8382 7.339 19.0828 6.60506 19.5721C6.11576 19.8168 5.62646 20.673 5.62646 21.2846C5.50414 25.3213 5.38181 29.358 6.72738 33.3947C3.91392 33.7617 4.15857 36.4528 4.15857 38.8993C4.15857 40.3672 3.91392 41.5905 3.54695 42.936C3.05765 44.6486 3.3023 46.7281 3.17998 48.6853C3.05765 49.9085 2.93533 51.1317 2.81301 52.355C2.69068 53.5782 2.44603 55.0461 2.69068 56.3917C2.81301 57.7372 2.56836 58.4712 1.58976 58.7158C0.366523 58.9605 -0.000449613 59.9391 0.121875 61.407C0.366523 64.0981 0.488847 66.7892 0.85582 69.358C1.22279 71.6822 1.58976 71.9268 3.3023 71.8045C11.2534 71.3152 19.2044 70.8259 27.1555 70.459C39.5103 69.9697 99.9384 67.0339 112.293 66.9116C121.345 66.7892 130.519 66.7892 139.571 67.1562C148.501 67.5232 157.431 68.2571 166.36 69.1134C176.758 70.092 187.156 71.3152 197.553 72.4161C200.856 72.7831 201.1 72.4161 201.345 68.1348C201.467 66.7892 201.59 65.3213 201.59 63.9758C201.59 62.6302 201.467 61.2846 203.058 60.7953C203.669 60.5507 204.159 58.4712 204.281 57.1256C204.403 55.4131 204.281 53.7005 204.159 51.988C204.159 51.2541 204.159 50.5201 204.159 49.7862ZM53.8222 29.1134C39.6326 30.3366 25.443 31.4375 11.2534 32.6608C25.443 30.092 39.5103 28.8687 53.8222 29.1134Z" fill="#C4E86B"/>
<path d="M89.0529 45.0152C89.4198 39.5106 91.8663 33.2721 95.903 30.8256C96.0253 30.8256 96.1477 30.9479 96.27 30.9479C93.9458 35.7186 91.4993 40.3669 89.0529 45.0152ZM82.325 3.30269C81.7134 11.0091 79.0223 18.2262 75.8419 25.1987C76.8204 17.6146 78.9 10.2752 82.325 3.30269ZM143.12 33.7614C142.142 33.0275 141.897 34.2507 141.408 34.8623C140.796 35.8409 133.09 46.8501 131.989 45.0152C131.499 44.2813 131.622 43.058 131.744 42.4464C131.866 39.633 131.989 36.8195 131.989 34.0061C131.989 32.7828 131.377 31.6819 130.031 31.1926C127.218 30.214 124.282 30.0917 121.958 32.5382C120.735 33.7614 119.756 35.2293 118.778 36.6972C118.288 37.3088 117.921 37.9204 117.31 39.0213C117.432 38.2874 117.432 38.0428 117.432 37.7981C117.799 35.4739 118.288 33.1498 118.655 30.8256C118.9 29.2354 117.432 28.3791 115.964 28.9908C112.906 30.214 111.805 28.8684 111.561 30.8256C111.316 32.1712 111.194 35.7186 110.582 36.6972C108.258 39.9999 105.689 43.1804 103.12 46.2385C98.3495 51.9877 99.9397 29.3577 100.184 28.7461C97.8602 27.1559 95.1691 27.1559 92.9672 28.6238C90.0315 30.7033 88.3189 33.6391 86.7287 36.8195C85.8724 38.532 85.0162 40.2446 83.7929 41.8348C75.8419 54.0672 73.8847 45.7492 75.3526 34.4953C75.3526 32.5382 76.2088 31.8042 78.6553 27.6452C81.4688 22.8746 83.6706 17.7369 84.6492 12.2324C85.1385 9.4189 85.3831 6.60544 85.1385 3.79199C84.8938 0.978532 82.2027 -0.489358 79.5116 0.61156C77.9214 1.22318 76.3311 2.3241 75.3526 3.79199C73.5177 6.36079 71.9275 9.29657 70.8266 12.2324C67.2792 19.8165 66.3006 28.1345 66.5452 36.4525C66.6675 39.266 66.9122 42.2018 67.7685 45.0152C69.6033 51.2538 76.0865 52.9663 81.2241 48.8073C82.4474 47.8287 83.4259 46.7278 84.5269 45.6268C84.6492 45.9938 84.7715 46.2385 85.0162 46.6054C89.0529 52.844 95.0468 41.4678 95.7807 36.5749C95.7807 37.4311 95.7807 37.9204 95.903 38.532C96.1477 40.9785 96.27 43.5473 96.7593 45.9938C97.3709 48.5626 99.2058 49.6635 102.019 49.4189C104.221 49.2966 105.567 47.8287 106.912 46.3608C108.013 45.1376 108.992 43.6697 110.093 42.3241C109.97 43.792 109.97 45.2599 109.848 46.8501C109.726 48.0733 110.215 48.8073 111.561 48.8073C112.172 48.8073 112.661 49.1743 113.273 49.4189C114.741 50.1528 115.597 49.9082 116.331 48.318C117.432 45.9938 118.411 43.5473 119.634 41.2232C120.246 39.9999 123.426 33.3944 124.649 34.373C125.138 34.9846 124.282 45.0152 124.282 46.6054C124.282 48.8073 125.872 50.1528 128.197 50.1528C129.42 50.1528 130.888 49.9082 131.866 49.2966C137.371 46.1161 140.918 41.3455 143.854 36.0856C144.099 35.7186 143.609 34.2507 143.12 33.7614Z" fill="black"/>
<path d="M52.478 46.4829C52.8449 42.6908 53.2119 38.8988 53.5789 35.2291C56.27 35.4737 58.5942 37.6755 58.5942 39.8774C58.7165 43.4248 56.27 46.1159 52.478 46.4829ZM59.6951 34.0058C58.2272 33.0272 56.637 32.5379 55.0468 31.804C54.6798 31.6817 54.1905 31.5593 53.9459 31.1924C52.7226 29.9691 49.7868 29.2352 48.319 29.8468C46.4841 30.5807 46.1171 32.171 45.9948 33.8835C45.3832 41.2229 44.5269 48.5624 44.0376 55.7795C43.426 63.4859 43.1813 70.2138 42.692 77.9202C42.4474 81.5899 45.6278 79.2658 47.4627 78.8988C49.4199 78.5318 50.0315 77.9202 50.2761 75.963C50.8878 68.5012 51.3771 61.1618 51.9887 53.7C52.111 51.9875 52.3556 50.2749 52.6003 48.5624C54.6798 49.541 56.5147 49.174 58.3495 48.4401C61.6523 46.9722 63.7318 44.648 63.9764 40.9783C63.9764 37.7979 62.3862 35.596 59.6951 34.0058Z" fill="black"/>
<path d="M20.6732 40C18.5937 40.8562 20.1839 44.8929 20.1839 44.8929C25.8108 43.3027 33.1503 43.5474 35.3521 43.6697V40.7339C31.927 39.1437 24.4653 38.5321 20.6732 40Z" fill="black"/>
<path d="M193.273 25.6881C189.236 8.31804 167.585 0.489295 150.215 5.01529C148.38 5.50459 150.459 8.56269 151.315 8.56269C153.273 8.07339 155.352 7.70642 157.554 7.5841C154.129 20.0612 143.731 57.4924 162.569 52.5994C161.101 38.5321 164.526 22.63 166.606 8.31804C176.881 10.3976 186.055 16.8807 188.013 26.9113C190.948 42.6911 175.291 57.2477 156.331 57.37C151.927 57.737 153.15 63.2416 158.288 63.3639C180.551 63.3639 197.799 44.893 193.273 25.6881Z" fill="black"/>
</g>
<defs>
<clipPath id="clip0_1_159">
<rect width="213.578" height="80" fill="white"/>
</clipPath>
</defs>
</svg>
