<svg width="98" height="94" viewBox="0 0 98 94" fill="none" xmlns="http://www.w3.org/2000/svg">
<path d="M88.2504 68.8118C98.6818 49.0408 91.9434 24.6058 73.3654 12.2352C57.5873 1.7293 32.0932 2.9502 22.2163 14.9145C56.0285 17.9438 78.0646 35.5424 88.2504 68.8118ZM84.9667 81.452C82.0981 43.711 50.716 15.9206 10.7957 20.3062C14.9054 9.76232 33.5928 -0.00463104 48.8388 7.62939e-06C69.5245 0.00628662 88.2632 13.0836 95.3864 32.927C101.38 49.624 96.7154 72.0557 84.9667 81.452Z" fill="#F2571A"/>
<path d="M22.7493 34.9628C38.3427 35.4434 52.6325 39.817 63.7595 50.9385C70.2843 57.4603 75.4266 65.3651 81.1103 72.7287C76.156 41.123 42.3495 17.1795 11.0386 22.9923C7.79339 23.5949 6.0952 25.0788 4.73267 27.9152C-5.45407 49.1211 1.26475 75.5244 20.4568 88.9153C22.6819 90.4681 25.2094 91.5877 28.8347 93.5932C26.7103 90.2421 25.3854 88.2921 24.2005 86.2604C15.4981 71.3383 13.7066 55.5299 18.009 38.8758C18.7054 36.1802 19.7082 34.8692 22.7493 34.9628Z" fill="#127EBD"/>
</svg>
